<svg width="24" height="24" viewBox="0 0 24 24" fill="none" xmlns="http://www.w3.org/2000/svg">
<g clip-path="url(#clip0_1113_11275)">
<g filter="url(#filter0_d_1113_11275)">
<path fill-rule="evenodd" clip-rule="evenodd" d="M3.80625 6.20635C4.70639 5.30649 5.92707 4.80097 7.19985 4.80097C8.47264 4.80097 9.69332 5.30649 10.5935 6.20635L11.9999 7.61155L13.4063 6.20635C13.849 5.7479 14.3787 5.38223 14.9643 5.13066C15.5499 4.8791 16.1798 4.74669 16.8171 4.74115C17.4545 4.73561 18.0865 4.85706 18.6764 5.09841C19.2663 5.33975 19.8023 5.69617 20.2529 6.14685C20.7036 6.59754 21.06 7.13347 21.3014 7.72337C21.5427 8.31327 21.6642 8.94533 21.6587 9.58268C21.6531 10.22 21.5207 10.8499 21.2691 11.4355C21.0176 12.0211 20.6519 12.5508 20.1934 12.9935L11.9999 21.1883L3.80625 12.9935C2.90639 12.0934 2.40088 10.8727 2.40088 9.59995C2.40088 8.32716 2.90639 7.10648 3.80625 6.20635Z" fill="#F12F3F"/>
<path fill-rule="evenodd" clip-rule="evenodd" d="M3.80625 6.20635C4.70639 5.30649 5.92707 4.80097 7.19985 4.80097C8.47264 4.80097 9.69332 5.30649 10.5935 6.20635L11.9999 7.61155L13.4063 6.20635C13.849 5.7479 14.3787 5.38223 14.9643 5.13066C15.5499 4.8791 16.1798 4.74669 16.8171 4.74115C17.4545 4.73561 18.0865 4.85706 18.6764 5.09841C19.2663 5.33975 19.8023 5.69617 20.2529 6.14685C20.7036 6.59754 21.06 7.13347 21.3014 7.72337C21.5427 8.31327 21.6642 8.94533 21.6587 9.58268C21.6531 10.22 21.5207 10.8499 21.2691 11.4355C21.0176 12.0211 20.6519 12.5508 20.1934 12.9935L11.9999 21.1883L3.80625 12.9935C2.90639 12.0934 2.40088 10.8727 2.40088 9.59995C2.40088 8.32716 2.90639 7.10648 3.80625 6.20635Z" stroke="#F12F3F" stroke-width="2" stroke-linejoin="round"/>
</g>
</g>
<defs>
<filter id="filter0_d_1113_11275" x="-2.59912" y="-0.259033" width="29.2578" height="26.4474" filterUnits="userSpaceOnUse" color-interpolation-filters="sRGB">
<feFlood flood-opacity="0" result="BackgroundImageFix"/>
<feColorMatrix in="SourceAlpha" type="matrix" values="0 0 0 0 0 0 0 0 0 0 0 0 0 0 0 0 0 0 127 0" result="hardAlpha"/>
<feOffset/>
<feGaussianBlur stdDeviation="2"/>
<feComposite in2="hardAlpha" operator="out"/>
<feColorMatrix type="matrix" values="0 0 0 0 0 0 0 0 0 0 0 0 0 0 0 0 0 0 0.12 0"/>
<feBlend mode="normal" in2="BackgroundImageFix" result="effect1_dropShadow_1113_11275"/>
<feBlend mode="normal" in="SourceGraphic" in2="effect1_dropShadow_1113_11275" result="shape"/>
</filter>
<clipPath id="clip0_1113_11275">
<rect width="24" height="24" fill="white"/>
</clipPath>
</defs>
</svg>
