<svg width="150" height="180" viewBox="0 0 150 180" fill="none" xmlns="http://www.w3.org/2000/svg">
<path d="M86.3755 37.6538C88.1655 37.6936 91.1256 37.7294 93.9289 38.7184C98.6208 39.2736 102.604 41.5214 105.093 45.8452C107.5 49.3365 108.668 53.2594 109.454 56.8336L109.609 57.552L109.655 57.7719L109.672 57.9959C109.773 59.2734 109.942 60.4432 110.124 61.5772C110.296 62.6463 110.505 63.8274 110.636 64.898C110.979 67.4793 112.566 70.193 115.002 72.7616C115.66 73.2838 116.247 73.9204 116.621 74.338C117.092 74.8628 117.318 75.137 117.502 75.3461L117.682 75.5406L117.706 75.5656L117.729 75.5905C125.941 84.4331 125.623 97.3546 117.398 106.35C116.812 107.264 116.106 107.89 115.676 108.266C115.078 108.788 114.883 108.946 114.692 109.187L114.485 109.448L114.233 109.665C111.938 111.64 110.988 113.972 111.674 117.085C111.924 117.918 112.224 119.135 112.28 120.32C113.354 124.761 113.026 129.919 109.8 133.949C107.607 138.361 103.367 140.365 99.0384 140.704C94.6085 141.906 90.4035 140.67 87.4734 139.808L87.1435 139.711L86.8383 139.551C86.0188 139.122 84.6172 138.616 83.4568 138.359L83.0913 138.278L82.7509 138.121C80.8958 137.268 79.3198 136.958 77.8718 137.023C76.4214 137.088 74.8692 137.54 73.0769 138.552L73.0373 138.575L72.9968 138.595C65.1504 142.76 56.7224 141.864 49.6143 137.222C41.9061 132.959 37.9272 124.657 39.7936 115.866C40.0802 114.142 40.4549 111.594 41.4478 109.253C41.822 107.351 41.5778 105.849 40.3676 104.413C38.4806 102.45 37.1715 100.824 35.3608 99.2167L35.1194 99.0033L34.9219 98.7488C26.8599 88.3877 28.6436 74.1625 40.0321 67.2189C43.1995 64.8634 46.6399 63.5032 48.7448 62.4055L48.8535 62.3483L48.9659 62.3C52.513 60.7557 54.8021 58.5948 56.5194 55.1888C58.8993 49.4397 62.5695 45.1512 67.2785 42.2441C71.99 39.3356 77.5524 37.9231 83.542 37.6005L83.675 37.5937L86.3755 37.6538Z" fill="#7573F6" stroke="#202224" stroke-width="7"/>
<path d="M69.7822 61H76.7822V68H69.7822V61Z" fill="#202224"/>
<path d="M86.7822 61H93.7822V68H86.7822V61Z" fill="#202224"/>
<path d="M100.038 70.9332C101.132 71.1646 102.515 71.5857 103.405 72.1073C105.898 73.5693 106.801 75.6123 106.672 77.5493C106.612 78.4584 106.327 79.281 105.964 79.9399C105.614 80.5747 105.129 81.1681 104.566 81.5348C103.434 82.2715 101.933 82.1903 100.763 81.7627C99.5237 81.3101 98.2784 80.3472 97.6695 78.8209C97.3795 78.0942 97.0827 76.8461 96.8446 75.712C96.5976 74.5356 96.383 73.3262 96.2717 72.5914L96.2305 72.3232L96.2869 72.0566C96.5003 71.0475 97.4395 70.8156 97.589 70.7798C97.8887 70.7079 98.1928 70.7034 98.419 70.7107C98.9004 70.7263 99.4771 70.8147 100.038 70.9332Z" fill="white" stroke="#202224" stroke-width="3"/>
<path d="M62.0039 67.7143C61.0455 68.2913 59.8766 69.142 59.2069 69.9262C57.3298 72.1239 57.1458 74.3499 57.9017 76.138C58.2565 76.9771 58.7946 77.6613 59.3535 78.1649C59.8921 78.6501 60.5446 79.052 61.1969 79.214C62.5076 79.5396 63.899 78.9715 64.8651 78.1841C65.8876 77.3508 66.7489 76.0333 66.8245 74.3917C66.8605 73.6101 66.7323 72.3336 66.586 71.184C66.4341 69.9917 66.2409 68.7786 66.1055 68.0479L66.0565 67.781L65.916 67.5475C65.3839 66.664 64.4206 66.7524 64.2676 66.7674C63.9609 66.7977 63.672 66.893 63.4607 66.974C63.011 67.1463 62.495 67.4187 62.0039 67.7143Z" fill="white" stroke="#202224" stroke-width="3"/>
<path d="M75.2813 54C74.3838 55.1146 72.1274 57.2694 70.2812 56.9721" stroke="#202224" stroke-width="3" stroke-linecap="round"/>
<path d="M88.2812 54C89.1787 55.1146 91.4351 57.2694 93.2812 56.9721" stroke="#202224" stroke-width="3" stroke-linecap="round"/>
<path d="M62.2812 105.903C62.2812 107.13 61.8363 109.01 60.1787 110.192C58.4393 111.433 56.0506 111.429 53.2197 110.293C50.7438 109.3 48.9162 108.691 47.6553 108.334C47.5317 108.299 47.4137 108.266 47.3018 108.236C46.9975 109.393 46.559 110.655 45.96 111.754C45.4708 112.651 44.7843 113.611 43.8223 114.257C42.7711 114.962 41.4616 115.236 40.0645 114.769C38.0324 114.089 36.6466 112.816 35.7393 111.505C35.523 111.66 35.2946 111.809 35.0508 111.944C33.3622 112.88 31.1691 113.167 28.624 112.21C26.9815 111.592 26.3756 109.997 26.1494 108.794C25.9067 107.502 25.9483 105.943 26.1465 104.316C26.5469 101.031 27.6582 96.9382 29.1631 92.9541C30.6689 88.9675 32.6172 84.962 34.7568 81.8818C35.8252 80.3439 36.9856 78.9726 38.2148 77.9482C39.4264 76.9386 40.866 76.1327 42.4688 76.0322C45.2821 75.8559 47.5028 76.4001 49.04 77.833C50.5546 79.2451 51.0062 81.1557 51.1406 82.7744C51.2721 84.3579 51.121 86.1375 51.0771 87.3682C51.0533 88.0379 51.0556 88.5752 51.1025 89.0068C51.1509 89.4513 51.2324 89.6317 51.2588 89.6758C52.1526 91.1696 54.7759 94.8879 57.2461 98.3232C58.4665 100.021 59.6284 101.62 60.4854 102.795C60.9138 103.382 61.2659 103.864 61.5107 104.198C61.6331 104.365 61.7291 104.496 61.7939 104.584C61.8263 104.628 61.8506 104.662 61.8672 104.685C61.8755 104.696 61.8825 104.704 61.8867 104.71C61.8888 104.713 61.8896 104.715 61.8906 104.717L61.8926 104.718L62.2812 105.247V105.903Z" fill="#FFF0EC" stroke="#202224" stroke-width="4"/>
<path d="M42.5938 78.0283C52.7002 77.3951 47.6473 87.5344 49.542 90.7021C49.8434 91.2059 50.3217 91.9335 50.9111 92.8018C50.1893 93.4029 49.3724 94.0005 48.8379 94H48.7988C47.7435 93.9991 47.2076 93.9987 46.7061 93.7979C45.8143 93.4408 44.8777 93.012 44.8945 92.3877C44.9279 91.1519 45.7527 89.1083 44.9102 88.418C44.7034 88.2487 44.382 88.1567 44.0498 88.0947C43.5552 88.0025 42.4424 88.0363 41.8525 87.4746C41.1698 86.8245 42.0378 85.5791 40.7559 84.0723C40.4694 83.7356 40.0197 83.7783 39.6895 83.502C39.2354 83.122 38.2044 82.1681 38.2881 80.6406C39.7272 79.0866 41.1928 78.1161 42.5938 78.0283Z" fill="#FFD6CC"/>
</svg>
