<svg width="126" height="126" viewBox="0 0 126 126" fill="none" xmlns="http://www.w3.org/2000/svg">
<circle cx="63.0005" cy="63" r="63" fill="white"/>
<path d="M69.5332 26.0307C70.8596 26.0602 72.911 26.0919 74.8205 26.7842C78.057 27.1461 80.7505 28.6685 82.4261 31.6107C83.9726 33.8501 84.7882 36.3643 85.3451 38.7564L85.5723 39.7852L85.5961 39.899L85.6053 40.0135C85.6798 40.9616 85.804 41.8256 85.9364 42.6494C86.0635 43.4398 86.2112 44.2668 86.3037 45.0215L86.3682 45.4185C86.7427 47.3679 87.9598 49.3238 89.6681 51.1173C90.1018 51.4528 90.5075 51.8892 90.7897 52.204C90.9979 52.4361 91.1481 52.6109 91.2689 52.7509L91.571 53.0897L91.5834 53.1017L91.5959 53.1147C97.2519 59.2047 97.0382 68.1136 91.3097 74.3333C90.9435 74.9232 90.4848 75.3346 90.1707 75.6091C89.7661 75.9627 89.5611 76.129 89.3724 76.3669L89.2669 76.5013L89.1364 76.6127C87.293 78.1995 86.4958 80.1525 87.07 82.6982C87.2503 83.296 87.4546 84.1479 87.4812 84.9393C88.2446 88.0324 88.0038 91.5511 85.8031 94.253C84.3664 97.2113 81.5347 98.5702 78.5569 98.7893C75.5625 99.6309 72.6905 98.8023 70.5423 98.1706L70.3725 98.1209L70.2161 98.0383C69.5624 97.6964 68.4921 97.3124 67.6031 97.1157L67.4146 97.0744L67.2396 96.9934C65.8207 96.3409 64.5724 96.0834 63.3944 96.1362C62.2149 96.1891 60.9877 96.5589 59.6198 97.3309L59.6 97.3422L59.5793 97.3525C54.1726 100.223 48.3678 99.6091 43.4369 96.3724C38.1544 93.4549 35.4407 87.7919 36.7137 81.7809C36.9285 80.4939 37.1898 78.7041 37.8897 77.0842C38.2143 75.5145 38.0385 74.1629 36.9553 72.8915C35.6411 71.5251 34.6275 70.2789 33.2965 69.0973L33.172 68.988L33.0704 68.8568C27.4992 61.6967 28.761 51.9499 36.5751 47.1999C38.8019 45.5342 41.1704 44.6131 42.7876 43.7698L42.8439 43.7407L42.9021 43.7156C45.6169 42.5335 47.3941 40.8536 48.7079 38.2369C50.3665 34.2168 52.9159 31.2424 56.1776 29.2288C59.4416 27.2139 63.3214 26.2191 67.5482 25.9915L67.6157 25.9881L69.5332 26.0307Z" fill="#4285F4" stroke="black" stroke-width="3.6"/>
<circle cx="59.7625" cy="44.6399" r="3.24" fill="black"/>
<rect x="65.083" y="50.4878" width="5.4" height="10.8" fill="black"/>
<path d="M71.6433 44.6394L75.9633 41.8335L75.9633 47.4453L71.6433 44.6394Z" fill="black"/>
</svg>
