<svg width="150" height="180" viewBox="0 0 150 180" fill="none" xmlns="http://www.w3.org/2000/svg">
<path d="M81.0938 58.6538C82.8837 58.6936 85.8438 58.7294 88.6472 59.7184C93.339 60.2736 97.3223 62.5214 99.8109 66.8452C102.219 70.3365 103.386 74.2594 104.172 77.8336L104.327 78.552L104.373 78.7719L104.391 78.9959C104.491 80.2734 104.66 81.4432 104.842 82.5772C105.014 83.6463 105.223 84.8274 105.355 85.898C105.697 88.4793 107.285 91.193 109.72 93.7616C110.378 94.2838 110.965 94.9204 111.34 95.338C111.81 95.8628 112.036 96.137 112.221 96.3461L112.4 96.5406L112.424 96.5656L112.447 96.5905C120.659 105.433 120.342 118.355 112.117 127.35C111.531 128.264 110.824 128.89 110.394 129.266C109.797 129.788 109.601 129.946 109.41 130.187L109.203 130.448L108.951 130.665C106.656 132.64 105.706 134.972 106.392 138.085C106.643 138.918 106.942 140.135 106.998 141.32C108.072 145.761 107.744 150.919 104.518 154.949C102.325 159.361 98.085 161.365 93.7566 161.704C89.3267 162.906 85.1217 161.67 82.1917 160.808L81.8617 160.711L81.5566 160.551C80.737 160.122 79.3354 159.616 78.175 159.359L77.8095 159.278L77.4692 159.121C75.614 158.268 74.0381 157.958 72.5901 158.023C71.1397 158.088 69.5874 158.54 67.7951 159.552L67.7556 159.575L67.715 159.595C59.8686 163.76 51.4406 162.864 44.3326 158.222C36.6244 153.959 32.6455 145.657 34.5118 136.866C34.7984 135.142 35.1731 132.594 36.1661 130.253C36.5403 128.351 36.296 126.849 35.0859 125.413C33.1989 123.45 31.8898 121.824 30.0791 120.217L29.8376 120.003L29.6401 119.749C21.5781 109.388 23.3619 95.1625 34.7504 88.2189C37.9178 85.8634 41.3582 84.5032 43.4631 83.4055L43.5718 83.3483L43.6842 83.3C47.2312 81.7557 49.5203 79.5948 51.2377 76.1888C53.6175 70.4397 57.2878 66.1512 61.9968 63.2441C66.7083 60.3356 72.2706 58.9231 78.2603 58.6005L78.3933 58.5937L81.0938 58.6538Z" fill="#7573F6" stroke="#202224" stroke-width="7"/>
<path d="M64.5005 82H71.5005V89H64.5005V82Z" fill="#202224"/>
<path d="M81.5015 82H88.5015V89H81.5015V82Z" fill="#202224"/>
<path d="M108.268 92.7098C110.678 92.2426 113.032 93.7413 113.628 96.1219L114.999 101.591L105.345 103.463L104.572 97.878C104.236 95.447 105.859 93.177 108.268 92.7098Z" fill="#F5BD0F" stroke="#202224" stroke-width="3"/>
<circle cx="116.263" cy="133.942" r="7" transform="rotate(-10.9744 116.263 133.942)" fill="#F5BD0F" stroke="#202224" stroke-width="3"/>
<path d="M109.411 98.6002C117.865 96.9608 126.193 101.969 128.708 110.205L134.562 129.375L97.585 136.545L95.8496 116.577C95.1042 107.997 100.956 100.24 109.411 98.6002Z" fill="#F5BD0F" stroke="#202224" stroke-width="3"/>
<path d="M70.5 20C78.5081 20 85 26.4919 85 34.5C85 42.5081 78.5081 49 70.5 49H60.2871C59.5754 51.0028 59.7738 53.4106 60.5 54.5C57.4079 54.5 55.5139 51.5112 54.5811 49H27.5C19.4919 49 13 42.5081 13 34.5C13 26.4919 19.4919 20 27.5 20H70.5Z" fill="white"/>
<path d="M70.5 20V18.5V20ZM70.5 49V50.5V49ZM60.2871 49V47.5H59.2282L58.8737 48.4978L60.2871 49ZM60.5 54.5V56H63.3028L61.7481 53.6679L60.5 54.5ZM54.5811 49L55.9872 48.4777L55.624 47.5H54.5811V49ZM27.5 49V50.5V49ZM27.5 20V18.5V20ZM70.5 20V21.5C77.6797 21.5 83.5 27.3203 83.5 34.5H85H86.5C86.5 25.6634 79.3366 18.5 70.5 18.5V20ZM85 34.5H83.5C83.5 41.6797 77.6797 47.5 70.5 47.5V49V50.5C79.3366 50.5 86.5 43.3366 86.5 34.5H85ZM70.5 49V47.5H60.2871V49V50.5H70.5V49ZM60.2871 49L58.8737 48.4978C58.444 49.7071 58.296 51.0096 58.3564 52.1704C58.4147 53.2932 58.6788 54.4723 59.2519 55.3321L60.5 54.5L61.7481 53.6679C61.595 53.4383 61.3967 52.8689 61.3523 52.0147C61.3099 51.1986 61.4186 50.2958 61.7005 49.5022L60.2871 49ZM60.5 54.5V53C59.4912 53 58.6182 52.5273 57.8345 51.6759C57.0354 50.8077 56.414 49.6268 55.9872 48.4777L54.5811 49L53.1749 49.5223C53.6809 50.8844 54.4729 52.4535 55.6271 53.7075C56.7967 54.9782 58.4167 56 60.5 56V54.5ZM54.5811 49V47.5H27.5V49V50.5H54.5811V49ZM27.5 49V47.5C20.3203 47.5 14.5 41.6797 14.5 34.5H13H11.5C11.5 43.3366 18.6634 50.5 27.5 50.5V49ZM13 34.5H14.5C14.5 27.3203 20.3203 21.5 27.5 21.5V20V18.5C18.6634 18.5 11.5 25.6634 11.5 34.5H13ZM27.5 20V21.5H70.5V20V18.5H27.5V20Z" fill="#202224"/>
<path d="M30 31H37V38H30V31Z" fill="#202224"/>
<path d="M46.002 31H53.002V38H46.002V31Z" fill="#202224"/>
<path d="M62.002 31H69.002V38H62.002V31Z" fill="#202224"/>
</svg>
