<svg width="34" height="34" viewBox="0 0 34 34" fill="none" xmlns="http://www.w3.org/2000/svg">
<path d="M13.1599 7.83301C13.6202 6.58903 15.3796 6.58903 15.8399 7.83301L18.1311 14.0247C18.2758 14.4158 18.5842 14.7241 18.9753 14.8689L25.1669 17.16C26.4109 17.6203 26.4109 19.3798 25.1669 19.8401L18.9753 22.1312C18.5842 22.2759 18.2758 22.5843 18.1311 22.9754L15.8399 29.167C15.3796 30.411 13.6202 30.411 13.1599 29.167L10.8687 22.9754C10.724 22.5843 10.4157 22.2759 10.0246 22.1312L3.83289 19.8401C2.58891 19.3798 2.58891 17.6203 3.83288 17.16L10.0246 14.8689C10.4157 14.7241 10.724 14.4158 10.8687 14.0247L13.1599 7.83301Z" fill="url(#paint0_linear_1113_11277)"/>
<path d="M26.4457 4.58601C26.6362 4.07126 27.3642 4.07126 27.5547 4.58601L28.5027 7.14808C28.5626 7.30992 28.6902 7.43751 28.8521 7.4974L31.4141 8.44545C31.9289 8.63592 31.9289 9.36398 31.4141 9.55445L28.8521 10.5025C28.6902 10.5624 28.5626 10.69 28.5027 10.8518L27.5547 13.4139C27.3642 13.9286 26.6362 13.9286 26.4457 13.4139L25.4976 10.8518C25.4378 10.69 25.3102 10.5624 25.1483 10.5025L22.5863 9.55445C22.0715 9.36398 22.0715 8.63592 22.5863 8.44545L25.1483 7.4974C25.3102 7.43751 25.4378 7.30992 25.4976 7.14808L26.4457 4.58601Z" fill="url(#paint1_linear_1113_11277)"/>
<defs>
<linearGradient id="paint0_linear_1113_11277" x1="21.75" y1="2.77832" x2="14.3627" y2="30.0629" gradientUnits="userSpaceOnUse">
<stop stop-color="white"/>
<stop offset="1" stop-color="#FFF9AD"/>
</linearGradient>
<linearGradient id="paint1_linear_1113_11277" x1="27.0002" y1="4.19995" x2="25.5" y2="11.5007" gradientUnits="userSpaceOnUse">
<stop stop-color="white"/>
<stop offset="1" stop-color="#FFF9AD"/>
</linearGradient>
</defs>
</svg>
