<svg width="126" height="126" viewBox="0 0 126 126" fill="none" xmlns="http://www.w3.org/2000/svg">
<circle cx="63" cy="63" r="63" fill="#687077"/>
<path d="M69.532 26.0307C70.8584 26.0602 72.9097 26.0919 74.8193 26.7842C78.0558 27.1461 80.7493 28.6685 82.4248 31.6107C83.9714 33.8501 84.787 36.3643 85.3439 38.7564L85.5711 39.7852L85.5949 39.899L85.6041 40.0135C85.6786 40.9616 85.8028 41.8256 85.9352 42.6494C86.0623 43.4398 86.2099 44.2668 86.3025 45.0215L86.3669 45.4185C86.7415 47.3679 87.9585 49.3238 89.6669 51.1173C90.1006 51.4528 90.5062 51.8892 90.7885 52.204C90.9966 52.4361 91.1469 52.6109 91.2677 52.7509L91.5698 53.0897L91.5822 53.1017L91.5946 53.1147C97.2507 59.2047 97.037 68.1136 91.3085 74.3333C90.9422 74.9232 90.4836 75.3346 90.1695 75.6091C89.7649 75.9627 89.5599 76.129 89.3712 76.3669L89.2657 76.5013L89.1352 76.6127C87.2918 78.1995 86.4946 80.1525 87.0688 82.6982C87.249 83.296 87.4534 84.1479 87.48 84.9393C88.2434 88.0324 88.0025 91.5511 85.8019 94.253C84.3652 97.2113 81.5335 98.5702 78.5557 98.7893C75.5613 99.6309 72.6893 98.8023 70.5411 98.1706L70.3713 98.1209L70.2149 98.0383C69.5612 97.6964 68.4908 97.3124 67.6019 97.1157L67.4133 97.0744L67.2383 96.9934C65.8195 96.3409 64.5712 96.0834 63.3932 96.1362C62.2137 96.1891 60.9864 96.5589 59.6186 97.3309L59.5988 97.3422L59.5781 97.3525C54.1714 100.223 48.3666 99.6091 43.4357 96.3724C38.1532 93.4549 35.4395 87.7919 36.7125 81.7809C36.9273 80.4939 37.1886 78.7041 37.8885 77.0842C38.213 75.5145 38.0373 74.1629 36.9541 72.8915C35.6399 71.5251 34.6263 70.2789 33.2953 69.0973L33.1708 68.988L33.0692 68.8568C27.498 61.6967 28.7598 51.9499 36.5738 47.1999C38.8007 45.5342 41.1692 44.6131 42.7864 43.7698L42.8427 43.7407L42.9009 43.7156C45.6157 42.5335 47.3929 40.8536 48.7067 38.2369C50.3652 34.2168 52.9147 31.2424 56.1764 29.2288C59.4403 27.2139 63.3202 26.2191 67.547 25.9915L67.6145 25.9881L69.532 26.0307Z" fill="#9BA5AD" stroke="black" stroke-width="3.6"/>
<path d="M62.6354 43.7259L58.1616 46.2794L58.4835 40.6768L62.6354 43.7259Z" fill="black"/>
<path d="M67.3198 43.9202L71.6398 41.1142L71.6398 46.7261L67.3198 43.9202Z" fill="black"/>
</svg>
