<svg width="150" height="180" viewBox="0 0 150 180" fill="none" xmlns="http://www.w3.org/2000/svg">
<path d="M36.127 61.7754C45.6693 45.1551 60.7055 43.1132 68.9492 43.5225C73.0679 43.5399 79.5508 44.6277 84.8506 48.6162C90.4547 52.8338 94.2465 59.9341 93.0762 70.8018C92.077 80.0799 93.7151 92.865 95.0029 105.511C95.6343 111.71 96.17 117.838 96.1748 123.221C96.1795 128.502 95.6852 133.563 93.9209 137.365C90.9854 143.692 85.4988 146.162 80.332 146.72C75.3037 147.262 70.283 146.068 67.1406 144.818L67.082 144.796L67.0254 144.771C65.4577 144.081 62.9895 143.231 60.7637 142.899C59.6453 142.733 58.7806 142.728 58.2002 142.828C57.9527 142.871 57.823 142.922 57.7666 142.948C55.8257 145.468 52.733 146.523 50.3906 147.001C47.8877 147.511 45.3751 147.535 43.752 147.399L43.6484 147.391L43.5449 147.376C32.2984 145.756 26.3028 140.908 23.5137 135.061C20.8732 129.525 21.4962 123.798 21.7432 121.313L21.749 121.258C23.0841 107.817 23.4441 98.3915 25.042 89.8643C26.691 81.0645 29.6574 73.0438 36.127 61.7754Z" fill="#F5BD0F" stroke="#202224" stroke-width="7"/>
<circle cx="59.332" cy="73.5303" r="4.5" fill="#202224"/>
<circle cx="74.332" cy="73.5303" r="4.5" fill="#202224"/>
<path d="M118.994 43.6826V45.1826C118.994 58.6095 109.629 69.8444 97.0752 72.7207V81.6807C109.629 84.5568 118.994 95.7927 118.994 109.22V110.72H58.6211V109.22C58.6211 95.7938 67.9846 84.5579 80.5371 81.6807V72.7207C67.9847 69.8434 58.6211 58.6085 58.6211 45.1826V43.6826H118.994Z" fill="#CBFFFF" stroke="#202224" stroke-width="3"/>
<rect x="55.2109" y="107.719" width="67.1934" height="13.3101" rx="6.65503" fill="#FF6640" stroke="#202224" stroke-width="3"/>
<rect x="55.2109" y="35.5" width="67.1934" height="13.3101" rx="6.65503" fill="#FF6640" stroke="#202224" stroke-width="3"/>
<path d="M108.727 56.9829C105.594 63.6872 98.9156 68.4015 91.1035 68.7134V91.1066C91.1035 93.1969 92.7217 94.9063 94.7702 95.322C99.5349 96.2891 104.024 98.4068 107.828 101.53L113.535 106.214H64.0781L69.7852 101.53C73.5898 98.4065 78.0794 96.2887 82.8447 95.3218C84.8933 94.9062 86.5117 93.1968 86.5117 91.1064V68.7134C78.6988 68.4022 72.0197 63.6877 68.8867 56.9829H108.727Z" fill="#FF6640"/>
<circle cx="60.1211" cy="94.502" r="8.25" fill="#F5BD0F" stroke="#202224" stroke-width="3"/>
<circle cx="119.059" cy="94.502" r="8.25" fill="#F5BD0F" stroke="#202224" stroke-width="3"/>
<path d="M35.3937 79.5529C34.6864 80.4196 33.8734 81.615 33.5078 82.5793C32.4831 85.2818 33.0616 87.4391 34.3769 88.8669C34.9942 89.537 35.7317 89.9993 36.4279 90.2846C37.0986 90.5594 37.8486 90.7174 38.5172 90.6496C39.8609 90.5134 40.9787 89.5089 41.6222 88.4415C42.3032 87.3119 42.669 85.7809 42.1859 84.2102C41.9558 83.4623 41.4042 82.3042 40.8782 81.2715C40.3326 80.2005 39.7411 79.1239 39.3669 78.4818L39.2307 78.2471L39.0196 78.0749C38.2204 77.4229 37.3436 77.8314 37.2047 77.8972C36.9262 78.0293 36.6865 78.2165 36.5149 78.3641C36.1498 78.6782 35.7561 79.1088 35.3937 79.5529Z" fill="white" stroke="#202224" stroke-width="3"/>
</svg>
