<svg width="126" height="126" viewBox="0 0 70 70" fill="none" xmlns="http://www.w3.org/2000/svg">
<circle cx="35" cy="35" r="34" fill="white" stroke="#FF6640" stroke-width="2"/>
<path d="M38.6287 14.4619C39.3677 14.4783 40.5117 14.4962 41.5751 14.8839C43.3621 15.0861 44.8497 15.9241 45.7797 17.5435C46.7718 18.9717 47.2247 20.6038 47.5392 22.1032L47.5524 22.1661L47.5578 22.2306C47.5992 22.7573 47.6686 23.2374 47.7421 23.6951C47.8127 24.134 47.8939 24.5933 47.9453 25.0124L47.9814 25.233C48.1908 26.323 48.8752 27.4159 49.8339 28.4175C50.067 28.6016 50.286 28.8326 50.4383 29.0024C50.6692 29.2599 50.7713 29.3906 50.8718 29.4946L50.8794 29.5016L50.8861 29.5086C54.0272 32.8906 53.9086 37.837 50.7296 41.2922C50.5258 41.6222 50.2698 41.8526 50.0945 42.0058C49.8697 42.2023 49.7553 42.2945 49.6505 42.4267L49.5921 42.5016L49.5195 42.5634C48.4959 43.4445 48.0527 44.5288 48.3708 45.9421C48.4712 46.2744 48.5852 46.749 48.6 47.1897C49.0238 48.9077 48.8875 50.8598 47.6655 52.3606C46.8656 54.009 45.2891 54.7648 43.6299 54.8838C41.9704 55.3461 40.3799 54.8901 39.1892 54.5399L39.095 54.5124L39.0081 54.4665C38.645 54.2766 38.0502 54.0629 37.5563 53.9537L37.4523 53.9309L37.3546 53.8857C36.5663 53.5232 35.8727 53.38 35.2182 53.4094C34.563 53.4388 33.8808 53.644 33.1209 54.0729L33.11 54.0795L33.0992 54.0851C30.093 55.6809 26.8646 55.3389 24.1238 53.5368C21.1889 51.9122 19.684 48.7607 20.399 45.4179C20.5172 44.7081 20.6633 43.7299 21.0443 42.8408C21.2293 41.9614 21.1353 41.2058 20.529 40.4947C19.7994 39.7361 19.2362 39.0446 18.4972 38.3885L18.4282 38.3274L18.3722 38.2548C15.278 34.2782 15.9774 28.8656 20.3148 26.2257C21.553 25.2985 22.8708 24.7867 23.7702 24.3177L23.8018 24.3008L23.8334 24.2868C25.3403 23.6307 26.3273 22.6988 27.057 21.2474C27.9784 19.0118 29.3961 17.3582 31.2094 16.2388C33.0226 15.1195 35.1774 14.5668 37.5254 14.4403L37.5635 14.4382L38.6287 14.4619Z" fill="#FF6640" stroke="black" stroke-width="2"/>
<path d="M34.7974 24.2917L32.3119 25.7103L32.4908 22.5977L34.7974 24.2917Z" fill="black"/>
<path d="M37.3997 24.4002L39.7997 22.8413L39.7997 25.959L37.3997 24.4002Z" fill="black"/>
<circle cx="60" cy="60" r="10" fill="#FF6640"/>
<path d="M63.2 57.6001L58.427 62.4001L56.8 60.7639" stroke="white" stroke-width="2" stroke-linecap="round" stroke-linejoin="round"/>
</svg>
