<svg width="200" height="120" viewBox="0 0 200 120" fill="none" xmlns="http://www.w3.org/2000/svg">
<g filter="url(#filter0_d_661_1094)">
<path d="M80.5957 18.9346L74.3242 43.6846L118.767 17.6699L156.376 18.3076L168.471 41.1699L139.646 79.666L124.681 70.7637L50.6699 104.751L34.2822 97.6982L32 68.4609L65.2803 48.9785L49.4229 46.0215L57.3623 36.7793L70.4199 45.9707L70.4707 45.9404L66.9346 17L80.5957 18.9346Z" fill="black"/>
</g>
<g filter="url(#filter1_d_661_1094)">
<path d="M87.4316 14.3477L82.8809 32.3018L117.318 12.1445L159.718 12.8633L174.962 41.6777L141.085 86.9209L124.351 76.9668L50.7422 110.77L29.0576 101.438L26.249 65.4551L49.7754 51.6816L39.0303 49.6787L56.4443 29.4072L63.5186 34.3867L60.6055 10.5488L87.4316 14.3477ZM70.4707 45.9404L70.4199 45.9707L57.3623 36.7793L49.4229 46.0215L65.2803 48.9785L32 68.4609L34.2822 97.6982L50.6699 104.751L124.681 70.7637L139.646 79.666L168.471 41.1699L156.376 18.3076L118.767 17.6699L74.3242 43.6846L80.5957 18.9346L66.9346 17L70.4707 45.9404Z" fill="white"/>
</g>
<path d="M132.964 43.0906C133.833 45.9413 136.282 46.3984 136.843 48.2923C137.565 50.7272 135.763 53.8811 132.789 55.2457C129.633 56.6935 126.895 55.7981 126.06 53.02C125.127 49.9351 126.746 48.0072 126.057 45.6448C125.719 44.5263 125.272 44.0291 124.3 43.7287C123.787 43.5686 123.417 43.4312 123.206 42.7813C122.659 41.0129 124.312 36.9611 128.23 35.1639C130.37 34.182 131.315 35.2852 131.78 36.8722C132.358 38.8024 132.356 40.9988 132.964 43.0906ZM125.774 35.4565C123.67 36.4217 121.033 36.2261 120.443 33.5991C119.866 31.0976 122.258 28.4635 124.253 27.5482C126.357 26.583 128.937 26.8481 129.547 29.4222C130.161 31.9071 127.732 34.5579 125.774 35.4565Z" fill="#FF6640"/>
<path d="M146.123 26.7786C151.056 24.5154 154.498 29.4345 155.782 33.7633C157.276 38.7421 156.859 44.2461 151.418 46.7423C150.402 47.2082 149.379 47.3703 148.312 47.2452C148.776 47.7787 149.112 48.415 149.306 49.0286C150.058 51.6253 148.543 54.7353 145.423 56.1664C141.796 57.8305 139.363 56.3561 138.32 52.8389C137.244 49.2491 138.271 45.2656 137.195 41.6759C136.423 39.1321 134.645 39.9475 134.037 37.8556C133.506 36.1235 135.143 32.0355 139.06 30.2382C140.765 29.4561 141.695 29.9516 142.214 30.9869C142.898 29.224 144.237 27.6439 146.123 26.7786ZM147.468 39.3775C148.593 38.8616 148.492 36.5368 147.248 34.7807C146.497 33.7198 145.428 33.1125 144.413 33.5785C143.216 34.1277 143.299 35.3626 143.604 36.4086C144.229 38.5367 146.126 39.9932 147.468 39.3775Z" fill="#FF6640"/>
<path d="M113.69 48.1132C113.593 47.8064 113.377 47.3349 112.688 47.651C111.128 48.3666 111.073 51.597 109.368 52.3791C107.99 53.0115 106.805 52.1503 105.983 49.4977C105.134 46.5941 106.723 44.9867 108.791 44.0381L115.792 40.8264C118.258 39.6948 119.983 39.9134 120.638 42.2033C121.497 44.8392 120.06 46.6839 118.18 48.4245C117.185 49.3198 116.445 50.0985 116.669 50.8739C116.813 51.3787 117.203 51.4632 117.638 51.2636C119.198 50.548 120.478 49.1266 122.074 48.3944C123.307 47.8286 124.239 48.8063 125.007 51.4392C126.167 55.2103 125.256 58.3942 121.484 60.1248L114.592 63.2866C112.271 64.3517 110.062 63.6526 109.13 60.5677C108.153 57.1956 109.918 54.6297 111.542 52.5234C112.867 50.8178 114.111 49.4131 113.69 48.1132Z" fill="#FF6640"/>
<path d="M96.8522 61.2385C97.6241 63.7823 99.2188 63.6215 99.8908 65.9477C100.502 67.9503 99.061 70.4556 96.667 71.5539C94.8533 72.386 92.8669 71.9801 91.1673 70.4766C90.6709 73.0315 88.9878 75.2965 86.9927 76.2118C83.8733 77.6429 81.0099 76.7611 80.241 74.1282C79.4526 71.5481 80.0625 69.3364 79.3405 66.9014C78.7154 64.7732 76.8865 64.9976 76.4687 63.6086C75.9329 61.4834 78.3304 57.6173 81.4499 56.1862C83.5175 55.2376 84.6969 56.2772 85.2917 58.2436C85.8395 60.012 85.7102 61.7399 86.2277 63.3466C86.6045 64.3592 87.5087 65.086 88.4155 64.67C89.3224 64.2539 89.4005 62.9887 89.063 61.8702C88.4213 59.7058 87.1594 60.592 86.728 59.0775C86.0364 56.8043 88.3055 53.041 91.6426 51.51C93.6376 50.5948 95.0514 51.5708 95.6961 53.646C96.4982 56.3515 96.2105 59.0741 96.8522 61.2385Z" fill="#FF6640"/>
<path d="M70.1398 74.502C71.4093 73.9195 70.952 71.5827 70.5389 70.5867C70.1259 69.5907 68.8509 67.6729 67.5451 68.272C66.203 68.8877 66.6966 71.2079 67.1293 72.151C67.5786 73.1303 68.8702 75.0844 70.1398 74.502ZM65.8277 63.5714C71.4137 61.0087 76.1867 62.9902 77.9983 69.1404C79.9597 75.617 77.7968 80.4732 71.703 83.2689C66.2257 85.7817 61.297 83.652 59.499 77.6273C57.748 71.8006 60.1328 66.1841 65.8277 63.5714Z" fill="#FF6640"/>
<path d="M48.7205 77.0394C49.7301 80.4841 57.91 73.5261 60.0758 80.831C61.3426 85.1236 59.0312 89.0819 53.8804 91.4449C48.911 93.7247 44.7961 92.8903 43.7336 89.426C43.1585 87.4067 43.6672 85.5487 45.0819 84.8997C46.9318 84.051 49.6727 84.8572 51.0873 84.2082C51.6314 83.9586 52.1619 83.5836 51.9349 82.8974C51.2962 80.6437 43.8366 85.8223 42.1658 80.2661C41.2032 77.0195 43.2896 73.9108 48.8394 71.3647C53.1559 69.3845 55.6864 69.5407 56.3917 71.9394C56.9063 73.6353 56.1889 75.3256 54.5566 76.0744C51.8724 77.3059 51.1142 74.8875 49.4819 75.6364C48.829 75.9359 48.5435 76.4621 48.7205 77.0394Z" fill="#FF6640"/>
<path d="M105.326 59.0584C105.488 59.062 105.697 59.0667 105.88 59.1396C106.204 59.1697 106.456 59.3129 106.612 59.5917C106.791 59.848 106.877 60.1482 106.94 60.4478C106.958 60.6776 107.001 60.8621 107.02 61.0231C107.06 61.3222 107.239 61.6015 107.465 61.8359C107.534 61.8833 107.624 62 107.669 62.0469C108.235 62.6559 108.215 63.5502 107.622 64.1793C107.573 64.27 107.48 64.3138 107.408 64.404C107.148 64.6276 107.026 64.9231 107.111 65.292C107.132 65.3613 107.153 65.4536 107.152 65.5223C107.237 65.8454 107.206 66.1888 106.992 66.4364C106.871 66.709 106.613 66.8409 106.311 66.8571C106.031 66.9427 105.755 66.8677 105.502 66.7933C105.41 66.7454 105.272 66.6964 105.157 66.6709C104.79 66.5022 104.465 66.5179 104.113 66.7165C103.574 67.0028 102.996 66.944 102.494 66.6117C101.968 66.3247 101.702 65.7682 101.831 65.1746C101.858 65.0147 101.885 64.8317 101.958 64.6728C102.009 64.4445 101.991 64.2147 101.811 64.0042C101.675 63.8636 101.539 63.7 101.38 63.5588C100.817 62.8351 100.955 61.8747 101.729 61.4101C101.965 61.2319 102.199 61.1453 102.41 61.0353C102.76 60.8825 102.997 60.6584 103.167 60.318C103.51 59.4768 104.213 59.1025 105.118 59.0538C105.164 59.0548 105.28 59.0574 105.326 59.0584Z" fill="#FF6640"/>
<defs>
<filter id="filter0_d_661_1094" x="28.3" y="13.3" width="143.871" height="95.15" filterUnits="userSpaceOnUse" color-interpolation-filters="sRGB">
<feFlood flood-opacity="0" result="BackgroundImageFix"/>
<feColorMatrix in="SourceAlpha" type="matrix" values="0 0 0 0 0 0 0 0 0 0 0 0 0 0 0 0 0 0 127 0" result="hardAlpha"/>
<feOffset/>
<feGaussianBlur stdDeviation="1.85"/>
<feComposite in2="hardAlpha" operator="out"/>
<feColorMatrix type="matrix" values="0 0 0 0 0 0 0 0 0 0 0 0 0 0 0 0 0 0 0.35 0"/>
<feBlend mode="normal" in2="BackgroundImageFix" result="effect1_dropShadow_661_1094"/>
<feBlend mode="normal" in="SourceGraphic" in2="effect1_dropShadow_661_1094" result="shape"/>
</filter>
<filter id="filter1_d_661_1094" x="22.549" y="6.84883" width="156.113" height="107.621" filterUnits="userSpaceOnUse" color-interpolation-filters="sRGB">
<feFlood flood-opacity="0" result="BackgroundImageFix"/>
<feColorMatrix in="SourceAlpha" type="matrix" values="0 0 0 0 0 0 0 0 0 0 0 0 0 0 0 0 0 0 127 0" result="hardAlpha"/>
<feOffset/>
<feGaussianBlur stdDeviation="1.85"/>
<feComposite in2="hardAlpha" operator="out"/>
<feColorMatrix type="matrix" values="0 0 0 0 0 0 0 0 0 0 0 0 0 0 0 0 0 0 0.35 0"/>
<feBlend mode="normal" in2="BackgroundImageFix" result="effect1_dropShadow_661_1094"/>
<feBlend mode="normal" in="SourceGraphic" in2="effect1_dropShadow_661_1094" result="shape"/>
</filter>
</defs>
</svg>
