<svg width="24" height="24" viewBox="0 0 24 24" fill="none" xmlns="http://www.w3.org/2000/svg">
<path d="M9.32373 14.1207V3.92792C9.32373 3.02145 9.99764 2.28662 10.8289 2.28662V3.10727L10.7521 3.11168C10.3726 3.15364 10.0763 3.50296 10.0763 3.92792V14.1207C10.0763 14.9988 10.7087 15.716 11.504 15.76L11.5816 15.762H12.4202C13.2515 15.762 13.9254 15.0271 13.9254 14.1207V3.92792C13.9254 3.47468 13.5884 3.10727 13.1728 3.10727V2.28662C14.0041 2.28662 14.678 3.02145 14.678 3.92792V14.1207C14.678 15.4804 13.6671 16.5826 12.4202 16.5826H11.5816C10.3346 16.5826 9.32373 15.4804 9.32373 14.1207ZM13.1728 2.28662V3.10727H10.8289V2.28662H13.1728Z" fill="#FF6640"/>
<rect x="4.10547" y="7.67554" width="15.7916" height="12.6548" rx="1.74525" fill="#FFA690"/>
<path d="M4.10547 15.3896H19.8971V18.5851C19.8971 19.549 19.1157 20.3304 18.1518 20.3304H5.85072C4.88684 20.3304 4.10547 19.549 4.10547 18.5851V15.3896Z" fill="#FF6640"/>
<circle cx="8.81969" cy="20.5318" r="1.18151" fill="#FFA690"/>
<circle cx="15.1825" cy="20.5318" r="1.18151" fill="#FFA690"/>
</svg>
