<svg width="24" height="24" viewBox="0 0 24 24" fill="none" xmlns="http://www.w3.org/2000/svg">
<path d="M15.8568 1.00037C17.2575 1.00042 18.3927 2.13583 18.3929 3.5365C18.3929 4.23035 18.1139 4.85882 17.6624 5.31677C18.1278 6.11073 18.3929 7.0149 18.3929 7.97498C18.3929 8.81583 18.1874 9.61272 17.8246 10.3314C19.0949 10.9691 21.1384 12.4848 20.9115 14.4115C20.667 16.4836 19.3832 16.679 19.0775 16.6791V17.3265C19.8921 17.7586 21.216 19.1408 19.9945 21.2133C18.7727 23.2855 16.4308 22.5084 15.4124 21.8607C14.6997 21.5369 13.0296 20.8891 12.0521 20.889V20.8793C11.0746 20.8794 9.40446 21.5369 8.69174 21.8607C7.67349 22.5084 5.3316 23.2855 4.10971 21.2133C2.88815 19.1406 4.21215 17.7584 5.02671 17.3265V16.6791C4.72126 16.6791 3.43822 16.4839 3.1937 14.4115C2.96681 12.4855 5.00733 10.9695 6.27768 10.3314C5.91508 9.61293 5.71229 8.81551 5.71225 7.97498C5.71225 7.01462 5.97612 6.10992 6.44174 5.3158C5.99082 4.85791 5.71225 4.22991 5.71225 3.5365C5.71246 2.1358 6.84763 1.00037 8.24839 1.00037C9.25341 1.00041 10.1191 1.58631 10.5296 2.43396C11.0173 2.32577 11.5273 2.26892 12.0521 2.26892C12.5769 2.26892 13.0869 2.32578 13.5746 2.43396C13.9851 1.58612 14.8516 1.00037 15.8568 1.00037Z" fill="#C4CDD5"/>
<path d="M8.24854 2.26794C8.68779 2.26804 9.07471 2.49205 9.30225 2.83142C8.50025 3.17939 7.79303 3.67584 7.22217 4.27966C7.07059 4.0707 6.97998 3.81439 6.97998 3.5365C6.98008 2.83615 7.54816 2.26794 8.24854 2.26794Z" fill="#687077"/>
<path d="M15.8569 2.26794C16.5573 2.26794 17.1254 2.83615 17.1255 3.5365C17.1255 3.81457 17.0341 4.07062 16.8823 4.27966C16.3114 3.67584 15.6043 3.17939 14.8022 2.83142C15.0298 2.4918 15.4175 2.26801 15.8569 2.26794Z" fill="#687077"/>
<path d="M10.1501 7.34058C9.79968 7.34058 9.51562 7.05653 9.51562 6.70613C9.51562 6.35574 9.79968 6.07169 10.1501 6.07169C10.5005 6.07169 10.7845 6.35574 10.7845 6.70613C10.7845 7.05653 10.5005 7.34058 10.1501 7.34058Z" fill="#687077"/>
<path d="M13.9548 7.34058C13.6044 7.34058 13.3203 7.05653 13.3203 6.70613C13.3203 6.35574 13.6044 6.07169 13.9548 6.07169C14.3052 6.07169 14.5892 6.35574 14.5892 6.70613C14.5892 7.05653 14.3052 7.34058 13.9548 7.34058Z" fill="#687077"/>
<path d="M12.0523 18.7533C9.95126 18.7533 8.24805 17.0501 8.24805 14.9491C8.24805 12.8481 9.95126 11.1448 12.0523 11.1448C14.1533 11.1448 15.8565 12.8481 15.8565 14.9491C15.8565 17.0501 14.1533 18.7533 12.0523 18.7533Z" fill="#687077"/>
</svg>
