<svg width="24" height="24" viewBox="0 0 24 24" fill="none" xmlns="http://www.w3.org/2000/svg">
<path d="M15.7061 8.52368C18.6706 8.52376 19.7649 10.6416 19.9414 11.7004C19.9507 11.7424 20.9999 16.4716 21 18.053C21 19.6412 18.8823 20.7004 16.7646 20.7004C15.0706 20.7004 13.9408 18.9353 13.5879 18.053H10.4121C10.0592 18.9353 8.92944 20.7004 7.23535 20.7004C5.1177 20.7004 3 19.6412 3 18.053C3.00005 16.4722 4.04862 11.7453 4.05859 11.7004C4.23506 10.6416 5.32937 8.52376 8.29395 8.52368H15.7061Z" fill="#FFA690"/>
<path d="M8.79199 10.6416C9.15469 10.6418 9.44921 10.9361 9.44922 11.2988V12.6631H10.8145C11.1771 12.6633 11.4715 12.9576 11.4717 13.3203C11.4717 13.6831 11.1772 13.9783 10.8145 13.9785H9.44922V15.3428C9.44908 15.7054 9.15461 15.9998 8.79199 16C8.42918 16 8.13393 15.7056 8.13379 15.3428V13.9785H6.77051C6.4076 13.9785 6.11328 13.6832 6.11328 13.3203C6.11342 12.9575 6.40769 12.6631 6.77051 12.6631H8.13379V11.2988C8.1338 10.9359 8.4291 10.6416 8.79199 10.6416Z" fill="#FF6640"/>
<circle cx="14.0588" cy="14.1765" r="1.05882" fill="#FF6640"/>
<circle cx="16.176" cy="12.0588" r="1.05882" fill="#FF6640"/>
<path d="M10.2007 9.58249V7.46484C10.2007 6.47073 11.0068 5.66464 12.0009 5.66464H14.6479C14.8234 5.66464 14.9654 5.52263 14.9654 5.3472V3.75896C14.9654 3.34962 15.2974 3.01758 15.7068 3.01758C16.1161 3.01758 16.4482 3.34962 16.4482 3.75896V5.3472C16.4482 6.34131 15.6421 7.1474 14.6479 7.1474H12.0009C11.8255 7.1474 11.6835 7.28941 11.6835 7.46484V9.58249C11.6835 9.99183 11.3514 10.3239 10.9421 10.3239C10.5327 10.3239 10.2007 9.99183 10.2007 9.58249Z" fill="#FFA690"/>
</svg>
