<svg width="24" height="24" viewBox="0 0 24 24" fill="none" xmlns="http://www.w3.org/2000/svg">
<path d="M17.4022 10.3658C18.5919 12.197 18.6161 14.5511 17.4645 16.4065L17.0586 17.0605C16.3137 18.2607 15.1447 19.1369 13.784 19.5161L12.3377 19.9193C12.1178 19.9806 11.8853 19.9806 11.6654 19.9193L10.2184 19.5161C8.85784 19.1368 7.68929 18.2606 6.94441 17.0605L6.53852 16.4065C5.38693 14.5511 5.41116 12.197 6.60087 10.3658L10.9517 3.66938C11.4454 2.90961 12.5577 2.9096 13.0513 3.66938L17.4022 10.3658Z" fill="#FFA690"/>
<path d="M11.2803 3.30756C11.7174 3.03023 12.2836 3.0302 12.7207 3.30756V10.9531H11.2803V3.30756Z" fill="#FF6640"/>
<circle cx="11.9999" cy="11.0331" r="1.40716" fill="#FF6640"/>
<rect x="7.48145" y="18.4517" width="9.06771" height="1.56136" rx="0.780679" fill="#FF6640"/>
</svg>
