<svg width="24" height="24" viewBox="0 0 24 24" fill="none" xmlns="http://www.w3.org/2000/svg">
<path d="M10.5391 4.65857C11.3275 3.80492 12.6773 3.80494 13.4658 4.65857L14.3994 5.67029C14.5867 5.87313 14.5738 6.18999 14.3711 6.37732C14.1682 6.5644 13.8523 6.55176 13.665 6.349L12.7314 5.33728C12.3389 4.91226 11.666 4.91226 11.2734 5.33728C10.9232 5.71687 10.9235 6.30225 11.2734 6.68201L11.8398 7.29529C12.2658 7.75691 12.5028 8.36247 12.5029 8.9906V9.5072C12.6411 9.55605 12.7742 9.62456 12.8965 9.71521L20.415 15.2885C21.5763 16.1495 20.9672 17.9935 19.5215 17.9935H4.4834C3.03778 17.9934 2.42867 16.1494 3.58984 15.2885L11.1104 9.71521C11.2324 9.62478 11.365 9.55604 11.5029 9.5072V8.9906C11.5028 8.61372 11.3601 8.24996 11.1045 7.97302L10.5391 7.36072C9.83508 6.59784 9.83494 5.42137 10.5391 4.65857ZM12.3008 10.5179C12.124 10.387 11.8818 10.3869 11.7051 10.5179L4.18555 16.0922C3.79875 16.3792 4.00166 16.9934 4.4834 16.9935H19.5215C20.0033 16.9935 20.2063 16.3792 19.8193 16.0922L12.3008 10.5179Z" fill="#C4CDD5"/>
</svg>
