<svg width="24" height="24" viewBox="0 0 24 24" fill="none" xmlns="http://www.w3.org/2000/svg">
<path d="M12.499 3C18.299 3 23 6.60725 23 11.0582C23 15.5082 18.299 19.1155 12.5 19.1155C11.9226 19.1157 11.3457 19.0796 10.773 19.0072L6.365 21.8455C5.864 22.1064 5.687 22.0779 5.893 21.4389L6.785 17.8179C3.905 16.3805 2 13.8897 2 11.0582C2 6.60824 6.7 3 12.5 3H12.499ZM18.407 10.9352L19.877 9.53322C19.9618 9.44649 20.0091 9.33074 20.009 9.21034C20.0089 9.08995 19.9612 8.97431 19.8762 8.88778C19.7912 8.80126 19.6753 8.7506 19.5531 8.74649C19.4309 8.74237 19.3118 8.78512 19.221 8.86572L17.293 10.7028V9.1847C17.293 9.06146 17.2433 8.94326 17.1548 8.85612C17.0662 8.76897 16.9462 8.72001 16.821 8.72001C16.6958 8.72001 16.5758 8.76897 16.4872 8.85612C16.3987 8.94326 16.349 9.06146 16.349 9.1847V11.7021C16.3314 11.7739 16.3314 11.8488 16.349 11.9207V13.3374C16.349 13.4606 16.3987 13.5788 16.4872 13.666C16.5758 13.7531 16.6958 13.8021 16.821 13.8021C16.9462 13.8021 17.0662 13.7531 17.1548 13.666C17.2433 13.5788 17.293 13.4606 17.293 13.3374V11.9955L17.72 11.5889L19.148 13.5904C19.1837 13.6404 19.229 13.6829 19.2813 13.7157C19.3337 13.7484 19.3921 13.7707 19.4532 13.7812C19.5143 13.7917 19.5769 13.7902 19.6374 13.7769C19.698 13.7636 19.7552 13.7387 19.806 13.7036C19.8568 13.6685 19.9 13.6239 19.9332 13.5724C19.9665 13.5208 19.9891 13.4633 19.9998 13.4032C20.0105 13.343 20.009 13.2814 19.9955 13.2218C19.982 13.1622 19.9567 13.1058 19.921 13.0558L18.407 10.9342V10.9352ZM15.449 12.8294H13.989V9.19947C13.9834 9.08006 13.9313 8.96735 13.8435 8.88479C13.7557 8.80223 13.6389 8.75616 13.5175 8.75616C13.3961 8.75616 13.2793 8.80223 13.1915 8.88479C13.1037 8.96735 13.0516 9.08006 13.046 9.19947V13.2941C13.046 13.55 13.256 13.7587 13.517 13.7587H15.449C15.5742 13.7587 15.6942 13.7098 15.7828 13.6226C15.8713 13.5355 15.921 13.4173 15.921 13.2941C15.921 13.1708 15.8713 13.0526 15.7828 12.9655C15.6942 12.8783 15.5742 12.8294 15.449 12.8294ZM9.592 11.7553L10.288 10.0737L10.926 11.7543L9.592 11.7553ZM12.115 12.2347L12.117 12.219C12.1168 12.1019 12.0714 11.9893 11.99 11.9039L10.944 9.14729C10.9002 9.01593 10.8166 8.90086 10.7046 8.81747C10.5926 8.73409 10.4573 8.68635 10.317 8.68063C10.1756 8.68002 10.0374 8.7218 9.92079 8.80041C9.80414 8.87903 9.71457 8.99075 9.664 9.12071L8.002 13.1326C7.95466 13.2467 7.9553 13.3746 8.00378 13.4883C8.05225 13.6019 8.1446 13.692 8.2605 13.7386C8.3764 13.7852 8.50636 13.7845 8.62179 13.7368C8.73722 13.6891 8.82866 13.5982 8.876 13.4841L9.208 12.6837H11.278L11.576 13.4713C11.5963 13.5301 11.6285 13.5844 11.6705 13.6308C11.7125 13.6772 11.7635 13.7149 11.8206 13.7416C11.8777 13.7682 11.9396 13.7833 12.0027 13.786C12.0658 13.7886 12.1288 13.7788 12.188 13.757C12.2471 13.7353 12.3013 13.7021 12.3472 13.6594C12.3931 13.6166 12.4298 13.5653 12.4551 13.5083C12.4805 13.4514 12.494 13.39 12.4948 13.3278C12.4957 13.2657 12.4838 13.204 12.46 13.1464L12.115 12.2347ZM8.793 9.20439C8.793 9.08132 8.74341 8.96327 8.65511 8.87615C8.56681 8.78904 8.44701 8.73996 8.322 8.7397H5.077C4.95182 8.7397 4.83176 8.78866 4.74325 8.87581C4.65473 8.96295 4.605 9.08115 4.605 9.20439C4.605 9.32764 4.65473 9.44583 4.74325 9.53298C4.83176 9.62012 4.95182 9.66908 5.077 9.66908H6.237V13.3472C6.237 13.4705 6.28673 13.5887 6.37525 13.6758C6.46376 13.7629 6.58382 13.8119 6.709 13.8119C6.83418 13.8119 6.95424 13.7629 7.04275 13.6758C7.13127 13.5887 7.181 13.4705 7.181 13.3472V9.66908H8.321C8.44618 9.66908 8.56624 9.62012 8.65475 9.53298C8.74327 9.44583 8.793 9.32764 8.793 9.20439Z" fill="#17181A"/>
</svg>
