<svg width="105" height="77" viewBox="0 0 105 77" fill="none" xmlns="http://www.w3.org/2000/svg">
<path d="M25.9781 20.5209C30.258 17.6854 36.3211 19.9302 38.8176 21.407L32.0418 24.6561L30.9718 56.2599C26.9298 57.4414 17.6016 55.8135 16.1257 51.5771C12.9554 42.4771 18.6075 35.3876 20.985 28.2005C20.8661 26.8221 21.6983 23.3564 25.9781 20.5209Z" fill="#A57042"/>
<path d="M20.985 28.2005C20.8661 26.8221 21.6983 23.3564 25.9781 20.5209C30.258 17.6854 36.3211 19.9302 38.8176 21.407L32.0418 24.6561M20.985 28.2005C22.7684 26.3299 26.8346 22.6477 28.8319 22.884C30.8292 23.1203 31.804 24.1639 32.0418 24.6561M20.985 28.2005C18.6075 35.3876 12.9554 42.4771 16.1257 51.5771C17.6016 55.8135 26.9298 57.4414 30.9718 56.2599L32.0418 24.6561" stroke="#202224" stroke-width="2.35762" stroke-linecap="round"/>
<path d="M55.0559 10.7047C56.1137 10.7282 57.8652 10.7488 59.5214 11.3363C62.2862 11.6669 64.6327 12.9932 66.0965 15.547C67.4137 17.4624 68.1001 19.5962 68.5616 21.5798L68.7497 22.4329L68.7771 22.5624L68.7869 22.6945C68.8461 23.4473 68.9461 24.1362 69.0536 24.8045C69.1548 25.4345 69.2772 26.1308 69.3548 26.7618C69.5566 28.2823 70.4915 29.8813 71.9254 31.3943C72.0135 31.4641 72.0975 31.5394 72.1803 31.6139C74.8691 29.4815 77.4539 28.4163 79.7622 28.6753C81.2108 28.8379 82.4383 29.5198 83.3111 30.5964C84.1569 31.6396 84.5879 32.9462 84.7157 34.2916C85.2073 39.4683 81.4547 46.7479 73.1153 51.5087C72.8265 51.8794 72.5259 52.1483 72.3255 52.3234C71.9733 52.6313 71.8583 52.7246 71.7459 52.8663L71.6243 53.0199L71.4749 53.1485C70.117 54.3175 69.558 55.6979 69.9716 57.5439C70.1191 58.0385 70.2944 58.7527 70.3249 59.4467C70.9528 62.06 70.7594 65.0914 68.8622 67.4611C67.5722 70.0569 65.0794 71.2345 62.533 71.4376C59.917 72.1523 57.4331 71.4224 55.7031 70.9136L55.509 70.8566L55.3294 70.7627C54.8464 70.51 54.0198 70.2124 53.3358 70.061L53.12 70.0132L52.9198 69.9209C51.8264 69.418 50.8973 69.2345 50.0439 69.2728C49.189 69.3112 48.2739 69.5778 47.2175 70.1741L47.1947 70.1872L47.171 70.1994C42.5374 72.6591 37.5592 72.1246 33.3646 69.3748C28.8426 66.8609 26.5087 61.9852 27.5983 56.8197C27.7676 55.8036 27.987 54.2931 28.5752 52.9058C28.7969 51.7795 28.6509 50.8915 27.9297 50.0421C26.8227 48.8896 26.0521 47.9344 24.988 46.9897L24.8453 46.8634L24.7294 46.7143C19.9766 40.6061 21.0285 32.218 27.7449 28.1264C29.6107 26.7399 31.6369 25.939 32.8765 25.2925L32.9408 25.2597L33.0068 25.2309C35.1001 24.3195 36.45 23.0438 37.4626 21.032C38.8654 17.6473 41.0271 15.1224 43.8006 13.4103C46.5776 11.696 49.8558 10.8635 53.3862 10.6734L53.4645 10.6693L55.0559 10.7047Z" fill="#4285F4" stroke="#202224" stroke-width="4.12583"/>
<circle cx="47.0449" cy="26.5276" r="2.65232" fill="#202224"/>
<rect x="49.6973" y="32.1267" width="4.12583" height="14.7351" fill="#202224"/>
<path d="M56.7695 26.5274L60.306 24.2304L60.306 28.8243L56.7695 26.5274Z" fill="#202224"/>
<path d="M57.2398 18.7063C47.0336 22.2912 39.1013 19.1456 36.4109 17.1247C35.4562 15.631 35.733 12.5957 42.1388 9.4803C45.1059 8.03729 57.761 4.2084 61.1452 9.4803C74.2674 10.1129 77.2561 13.2585 77.1101 14.7522C77.5515 16.2887 69.4413 19.2334 68.175 19.2334L66.0921 15.3206C64.156 16.1106 61.4712 17.2199 57.2398 18.7063Z" fill="#FFAE91"/>
<path d="M36.4109 17.1247C39.1013 19.1456 47.0336 22.2912 57.2398 18.7063C61.4712 17.2199 64.156 16.1106 66.0921 15.3206M36.4109 17.1247C39.188 14.3129 48.023 8.84767 61.1452 9.4803M36.4109 17.1247C35.4562 15.631 35.733 12.5957 42.1388 9.4803C45.1059 8.03729 57.761 4.2084 61.1452 9.4803M66.0921 15.3206C70.3613 13.9615 71.1424 13.9615 75.2047 13.9615C76.4461 13.9615 77.007 14.3933 77.1101 14.7522M66.0921 15.3206L68.175 19.2334C69.4413 19.2334 77.5515 16.2887 77.1101 14.7522M61.1452 9.4803C74.2674 10.1129 77.256 13.2585 77.1101 14.7522" stroke="#202224" stroke-width="2.35762" stroke-linecap="round"/>
<path d="M26.7344 47.746C26.7344 47.746 32.9231 32.1268 30.5655 27.4115L34.6913 25.3486C37.3476 25.277 33.3154 48.3465 29.3867 51.577L26.7344 47.746Z" fill="#A67042" stroke="#202224" stroke-width="2.35762" stroke-linecap="round"/>
<path d="M73.5923 50.6929C73.5923 50.6929 69.4669 40.9679 72.866 33.0113L70.0558 31.2422C66.814 33.8947 67.584 48.9455 70.6451 52.4609L73.5923 50.6929Z" fill="#A67042" stroke="#202224" stroke-width="2.35762" stroke-linecap="round"/>
<path d="M79.8871 19.2396C79.3491 19.0373 78.7623 19.0404 78.2588 19.105C77.2357 19.2361 76.0788 19.6872 75.1165 20.2292C74.1974 20.7468 73.2005 21.4888 72.7387 22.3483C72.5894 22.6263 72.4639 22.9867 72.4628 23.3816L71.1913 23.5649L72.2293 25.1206C73.2416 26.6375 74.8021 29.0464 76.1874 31.3371C76.8803 32.4829 77.5234 33.5901 78.0314 34.5359C78.5529 35.507 78.8891 36.2312 79.0148 36.6421C79.6412 38.6898 81.2675 47.3302 82.0147 51.4754L82.1863 52.4287L83.1553 52.4449C86 52.4922 87.91 51.6877 89.1321 50.7865C89.7351 50.3417 90.1526 49.8859 90.4261 49.5283C90.5626 49.3497 90.664 49.1956 90.7342 49.0781C90.7693 49.0195 90.797 48.9698 90.8175 48.931C90.8278 48.9117 90.8364 48.8946 90.8433 48.8808C90.8468 48.8739 90.8494 48.8672 90.8521 48.8618C90.8533 48.8593 90.8546 48.857 90.8556 48.8548C90.8562 48.8536 90.8569 48.8518 90.8574 48.8508L90.8583 48.8497C90.8587 48.849 90.8591 48.8478 89.7936 48.3436L90.8592 48.8477L91.1183 48.3004L90.8239 47.7719C89.8652 46.0449 88.3457 43.3424 86.9787 40.7351C85.584 38.0749 84.4396 35.6796 84.1405 34.5046C83.6406 32.5398 82.6365 27.8043 81.8632 24.0636L81.194 20.7941C81.187 20.7565 81.1793 20.719 81.1706 20.6819L81.1342 20.5468C80.9332 19.8868 80.4517 19.4519 79.8871 19.2396Z" fill="#FEF2C4" stroke="#202224" stroke-width="2.35762" stroke-linecap="round"/>
<path d="M81.9357 34.578C81.8135 34.6334 80.9604 35.0739 79.2437 35.1895C79.1583 35.1953 79.277 35.3791 79.2827 35.4182C79.2884 35.4573 79.2994 35.4903 79.3106 35.5239C79.3544 35.6551 79.4243 35.8052 79.5065 35.9816L79.5111 35.9914C79.5888 36.1583 79.6067 36.3116 79.6682 36.4586C79.7241 36.5923 79.7903 36.8746 80.0065 37.0402C80.0786 37.0954 80.1909 37.151 81.2559 37.0402C81.5767 37.0068 81.841 36.8941 82.0555 36.8415C82.35 36.7692 82.625 36.6595 82.9532 36.4586C83.5411 36.0986 83.8617 35.633 83.8528 35.5239C83.847 35.4518 83.9298 35.5566 83.7445 35.1109C83.6609 34.9098 83.55 34.6659 83.4382 34.4765C83.2937 34.2314 83.2512 33.9629 83.1046 33.8207C83.082 33.7988 83.0479 33.8077 83.0154 33.8267C82.9488 33.8656 82.8104 33.8328 82.7294 33.8951C82.5844 34.0066 82.2778 34.4228 81.9357 34.578Z" fill="#A57042" stroke="#202224" stroke-width="1.17881" stroke-linecap="round"/>
<path d="M73.0879 23.7063C73.661 23.7063 74.1445 23.7063 74.4912 23.694C74.7747 23.684 75.0464 23.5828 75.3065 23.5001C75.6309 23.3971 75.8328 23.3426 76.0552 23.2932C76.4575 23.2039 76.792 23.0697 77.0265 22.9917C77.4154 22.8623 77.6772 22.6976 77.7925 22.6523C78.0976 22.5326 78.3788 22.3343 78.6403 22.1769C78.7417 22.1159 79.0479 21.9136 79.4898 21.5834C79.982 21.2155 80.0093 20.9698 80.0552 20.8413C80.1097 20.6888 80.0842 20.5808 80.1048 20.4773C80.109 20.4156 80.1172 20.3573 80.1296 20.2996C80.1338 20.2665 80.1338 20.2255 80.1338 20.1833" stroke="#202224" stroke-width="1.17881" stroke-linecap="round"/>
</svg>
