<svg width="126" height="126" viewBox="0 0 72 72" fill="none" xmlns="http://www.w3.org/2000/svg">
<circle cx="36" cy="36" r="35" fill="white" stroke="#FF6640" stroke-width="2"/>
<path d="M39.6287 15.4614C40.3677 15.4778 41.5117 15.4957 42.5751 15.8834C44.3621 16.0856 45.8497 16.9237 46.7797 18.543C47.7718 19.9712 48.2247 21.6033 48.5392 23.1028L48.5524 23.1656L48.5578 23.2302C48.5992 23.7568 48.6686 24.2369 48.7421 24.6946C48.8127 25.1335 48.8939 25.5928 48.9453 26.0119L48.9814 26.2325C49.1908 27.3225 49.8752 28.4154 50.8339 29.417C51.067 29.6011 51.286 29.8321 51.4383 30.0019C51.6692 30.2594 51.7713 30.3901 51.8718 30.4941L51.8794 30.5011L51.8861 30.5081C55.0272 33.8901 54.9086 38.8365 51.7296 42.2917C51.5258 42.6218 51.2698 42.8521 51.0945 43.0053C50.8697 43.2018 50.7553 43.294 50.6505 43.4262L50.5921 43.5011L50.5195 43.563C49.4959 44.4441 49.0527 45.5283 49.3708 46.9416C49.4712 47.2739 49.5852 47.7485 49.6 48.1892C50.0238 49.9072 49.8875 51.8593 48.6655 53.3601C47.8656 55.0085 46.2891 55.7644 44.6299 55.8833C42.9704 56.3456 41.3799 55.8896 40.1892 55.5394L40.095 55.5119L40.0081 55.4661C39.645 55.2761 39.0502 55.0625 38.5563 54.9532L38.4523 54.9304L38.3546 54.8852C37.5663 54.5227 36.8727 54.3796 36.2182 54.4089C35.563 54.4383 34.8808 54.6435 34.1209 55.0724L34.11 55.079L34.0992 55.0846C31.093 56.6804 27.8646 56.3384 25.1238 54.5364C22.1889 52.9117 20.684 49.7603 21.399 46.4174C21.5172 45.7076 21.6633 44.7294 22.0443 43.8403C22.2293 42.961 22.1353 42.2053 21.529 41.4943C20.7994 40.7356 20.2362 40.0441 19.4972 39.388L19.4282 39.3269L19.3722 39.2544C16.278 35.2778 16.9774 29.8651 21.3148 27.2252C22.553 26.2981 23.8708 25.7862 24.7702 25.3172L24.8018 25.3003L24.8334 25.2864C26.3403 24.6303 27.3273 23.6983 28.057 22.2469C28.9784 20.0113 30.3961 18.3577 32.2094 17.2383C34.0226 16.1191 36.1774 15.5663 38.5254 15.4398L38.5635 15.4377L39.6287 15.4614Z" fill="#F5BD0F" stroke="black" stroke-width="2"/>
<circle cx="34.6" cy="27.0002" r="1.8" fill="black"/>
<circle cx="40.6" cy="27.0002" r="1.8" fill="black"/>
<circle cx="61" cy="61" r="10" fill="#FF6640"/>
<path d="M64.2 58.6001L59.427 63.4001L57.8 61.7639" stroke="white" stroke-width="2" stroke-linecap="round" stroke-linejoin="round"/>
</svg>
