<svg width="34" height="38" viewBox="0 0 34 38" fill="none" xmlns="http://www.w3.org/2000/svg">
<path d="M17.5144 32.0348C17.286 32.4303 16.7151 32.4303 16.4867 32.0348L13.6604 27.1396C13.4321 26.744 13.7175 26.2496 14.1743 26.2496L19.8268 26.2496C20.2835 26.2496 20.569 26.744 20.3406 27.1396L17.5144 32.0348Z" fill="#9BA5AD"/>
<path d="M17 6.0752C23.2262 6.0752 28.2742 11.1225 28.2744 17.3486C28.2744 23.575 23.2263 28.623 17 28.623C10.7738 28.6229 5.72656 23.5748 5.72656 17.3486C5.72673 11.1226 10.7739 6.07536 17 6.0752ZM17 12.9873C14.5913 12.9873 12.6388 14.94 12.6387 17.3486C12.6387 19.7574 14.5912 21.7099 17 21.71C19.4088 21.71 21.3613 19.7574 21.3613 17.3486C21.3612 14.94 19.4087 12.9873 17 12.9873Z" fill="#9BA5AD"/>
</svg>
