<svg width="24" height="24" viewBox="0 0 24 24" fill="none" xmlns="http://www.w3.org/2000/svg">
<path d="M12.7168 2.00012C13.473 2.00012 14.158 2.42019 14.5361 3.04016C14.72 3.34006 14.843 3.70988 14.8125 4.09973C14.7921 4.39973 14.8834 4.70059 15.0469 4.98059C15.5681 5.83047 16.7238 6.15001 17.623 5.67004C18.6346 5.09039 19.9116 5.44016 20.4941 6.42981L21.1787 7.61047C21.7714 8.60046 21.4448 9.87057 20.4229 10.4406C19.5543 10.9506 19.2474 12.0806 19.7686 12.9406C19.932 13.2105 20.1163 13.4402 20.4023 13.5802C20.76 13.7702 21.0363 14.0702 21.2305 14.3702C21.6084 14.9901 21.5777 15.7502 21.21 16.42L20.4941 17.6202C20.116 18.2601 19.411 18.6602 18.6855 18.6603C18.328 18.6603 17.9295 18.5603 17.6025 18.3605C17.3369 18.1905 17.0301 18.13 16.7031 18.13C15.6914 18.13 14.8432 18.9603 14.8125 19.9503C14.8124 21.1001 13.8722 21.9999 12.6973 22.0001H11.3066C10.1214 22 9.18175 21.1001 9.18164 19.9503C9.1612 18.9603 8.31252 18.13 7.30078 18.13C6.96356 18.13 6.65684 18.1905 6.40137 18.3605C6.07442 18.5603 5.66571 18.6603 5.31836 18.6603C4.58256 18.6603 3.87715 18.2602 3.49902 17.6202L2.79395 16.42C2.4159 15.7701 2.39543 14.9902 2.77344 14.3702C2.93691 14.0703 3.24347 13.7702 3.59082 13.5802C3.87692 13.4402 4.06164 13.2105 4.23535 12.9406C4.74633 12.0806 4.43898 10.9506 3.57031 10.4406C2.55876 9.87057 2.23217 8.6004 2.81445 7.61047L3.49902 6.42981C4.09176 5.44 5.35899 5.09024 6.38086 5.67004C7.26986 6.14999 8.425 5.83036 8.94629 4.98059C9.1098 4.70059 9.20208 4.39973 9.18164 4.09973C9.16129 3.70987 9.27366 3.34007 9.46777 3.04016C9.84591 2.42024 10.5304 2.02012 11.2764 2.00012H12.7168ZM12.0117 9.17981C10.4075 9.18 9.1095 10.4401 9.10938 12.0099C9.10938 13.5798 10.4074 14.83 12.0117 14.8302C13.6162 14.8302 14.8838 13.5799 14.8838 12.0099C14.8837 10.44 13.6161 9.17981 12.0117 9.17981Z" fill="white"/>
</svg>
