<svg width="40" height="40" viewBox="0 0 40 40" fill="none" xmlns="http://www.w3.org/2000/svg">
<path d="M12 14.1765L28 14.1765M24 29H16C14.8954 29 14 28.0519 14 26.8824V15.2353C14 14.6505 14.4477 14.1765 15 14.1765H25C25.5523 14.1765 26 14.6505 26 15.2353V26.8824C26 28.0519 25.1046 29 24 29ZM18 14.1765H22C22.5523 14.1765 23 13.7024 23 13.1176V12.0588C23 11.4741 22.5523 11 22 11H18C17.4477 11 17 11.4741 17 12.0588V13.1176C17 13.7024 17.4477 14.1765 18 14.1765Z" stroke="white" stroke-width="2" stroke-linecap="round"/>
</svg>
