<svg width="24" height="24" viewBox="0 0 24 24" fill="none" xmlns="http://www.w3.org/2000/svg">
<path d="M14.7594 2C15.2165 2 15.5871 2.37055 15.5871 2.82765V5.86237C15.7326 6.97201 16.477 8.39832 18.3124 9.35555C19.249 9.844 19.9636 10.754 19.9108 11.8089L19.5346 19.3324C19.4869 20.2867 18.6993 21.0359 17.7438 21.0359H6.25745C5.30196 21.0359 4.5143 20.2867 4.46659 19.3324L4.09042 11.8089C4.03767 10.754 4.75228 9.844 5.68882 9.35555C7.52419 8.39832 8.26859 6.97201 8.41413 5.86237V2.82765C8.41413 2.37055 8.78468 2 9.24178 2C9.69888 2 10.0694 2.37055 10.0694 2.82765V5.86237H13.9318V2.82765C13.9318 2.37055 14.3024 2 14.7594 2Z" fill="#FFA690"/>
<path d="M8.68945 13.8086C8.68945 13.3815 9.03575 13.0352 9.46293 13.0352H14.5372C14.9644 13.0352 15.3107 13.3815 15.3107 13.8086V14.1387C15.3107 15.9671 13.8284 17.4493 12.0001 17.4493C10.1717 17.4493 8.68945 15.9671 8.68945 14.1387V13.8086Z" fill="#FF6640"/>
</svg>
