<svg width="48" height="48" viewBox="0 0 48 48" fill="none" xmlns="http://www.w3.org/2000/svg">
<path d="M21.2222 33.4394C22.0478 34.0989 23.1381 34.5 24.3333 34.5C25.5286 34.5 26.6188 34.0989 27.4444 33.4394M15.5922 30.0454C15.1004 30.0454 14.8256 29.2727 15.1232 28.8434C15.8136 27.8471 16.48 26.386 16.48 24.6265L16.5085 22.0769C16.5085 17.34 20.0118 13.5 24.3333 13.5C28.7185 13.5 32.2735 17.3966 32.2735 22.2033L32.245 24.6265C32.245 26.3981 32.8884 27.8672 33.5507 28.8638C33.8368 29.2942 33.5613 30.0454 33.0756 30.0454H15.5922Z" stroke="white" stroke-width="2" stroke-linecap="round" stroke-linejoin="round"/>
<circle cx="31.3335" cy="16" r="3" fill="#FF6640"/>
</svg>
