<svg width="24" height="24" viewBox="0 0 24 24" fill="none" xmlns="http://www.w3.org/2000/svg">
<path fill-rule="evenodd" clip-rule="evenodd" d="M11.2971 2.22773C11.7181 1.92417 12.2863 1.92401 12.7072 2.22773L21.5012 8.57441C22.4494 9.25872 21.9654 10.757 20.7961 10.757H20.4387V18.59C20.4386 19.9211 19.3595 21.0002 18.0285 21.0002H5.97773C4.64667 21.0002 3.56761 19.9211 3.56758 18.59V10.757H3.20722C2.03802 10.7569 1.554 9.25868 2.50215 8.57441L11.2971 2.22773Z" fill="#C4CDD5"/>
<path d="M11.6354 14.8679C11.859 15.0102 12.1476 15.0102 12.3711 14.8679C13.0807 14.4164 14.6272 13.3377 15.2931 12.1304C16.1713 10.5378 15.14 8.94928 13.7771 8.94928C13.0002 8.94928 12.5327 9.34018 12.2742 9.67618C12.1381 9.85323 11.8689 9.85323 11.7325 9.67618C11.4741 9.34018 11.0066 8.94928 10.2296 8.94928C8.86678 8.94928 7.8355 10.5378 8.7137 12.1304C9.37932 13.3375 10.9258 14.4164 11.6354 14.8679Z" fill="#687077"/>
</svg>
