<svg width="150" height="180" viewBox="0 0 150 180" fill="none" xmlns="http://www.w3.org/2000/svg">
<path d="M38.2442 49C30.0775 52.5 18.2442 59.7 36.2442 60.5L38.2442 49Z" fill="#4285F4" stroke="#202224" stroke-width="4"/>
<path d="M69.0938 40.6538C70.8837 40.6936 73.8438 40.7294 76.6472 41.7184C81.339 42.2736 85.3223 44.5214 87.8109 48.8452C90.2187 52.3365 91.3858 56.2594 92.1722 59.8336L92.3272 60.552L92.3731 60.7719L92.3906 60.9959C92.491 62.2734 92.6601 63.4432 92.8423 64.5772C93.0142 65.6463 93.2228 66.8274 93.3546 67.898C93.6971 70.4793 95.2846 73.193 97.7199 75.7616C98.3783 76.2838 98.9651 76.9204 99.3396 77.338C99.8103 77.8628 100.036 78.137 100.221 78.3461L100.4 78.5406L100.424 78.5656L100.447 78.5905C108.659 87.4331 108.342 100.355 100.117 109.35C99.5305 110.264 98.8238 110.89 98.3939 111.266C97.7965 111.788 97.6009 111.946 97.4103 112.187L97.2032 112.448L96.9513 112.665C94.6561 114.64 93.7064 116.972 94.3922 120.085C94.6425 120.918 94.9418 122.135 94.9981 123.32C96.0722 127.761 95.7439 132.919 92.5178 136.949C90.3253 141.361 86.085 143.365 81.7566 143.704C77.3267 144.906 73.1217 143.67 70.1917 142.808L69.8617 142.711L69.5566 142.551C68.737 142.122 67.3354 141.616 66.175 141.359L65.8095 141.278L65.4692 141.121C63.614 140.268 62.0381 139.958 60.5901 140.023C59.1397 140.088 57.5874 140.54 55.7951 141.552L55.7556 141.575L55.715 141.595C47.8686 145.76 39.4406 144.864 32.3326 140.222C24.6244 135.959 20.6455 127.657 22.5118 118.866C22.7984 117.142 23.1731 114.594 24.1661 112.253C24.5403 110.351 24.296 108.849 23.0859 107.413C21.1989 105.45 19.8898 103.824 18.0791 102.217L17.8376 102.003L17.6401 101.749C9.57815 91.3877 11.3619 77.1625 22.7504 70.2189C25.9178 67.8634 29.3582 66.5032 31.4631 65.4055L31.5718 65.3483L31.6842 65.3C35.2312 63.7557 37.5203 61.5948 39.2377 58.1888C41.6175 52.4397 45.2878 48.1512 49.9968 45.2441C54.7083 42.3356 60.2706 40.9231 66.2603 40.6005L66.3933 40.5937L69.0938 40.6538Z" fill="#FF6640" stroke="#202224" stroke-width="7"/>
<path d="M63.7773 66C64.8819 66 65.7773 66.8954 65.7773 68H70.667C70.667 66.8954 71.5624 66 72.667 66H88.2227C89.327 66.0002 90.2227 66.8956 90.2227 68V75C90.2227 76.1044 89.327 76.9998 88.2227 77H72.667C71.5624 77 70.667 76.1046 70.667 75V71H65.7773V75C65.7773 76.1046 64.8819 77 63.7773 77H47C45.8954 77 45 76.1046 45 75V68C45 66.8954 45.8954 66 47 66H63.7773Z" fill="#202224"/>
<path d="M37.082 50.3574C40.2352 42.5006 48.9388 32.2757 66.7891 33.04C75.9798 33.4336 82.355 36.3709 86.6113 40.3105C90.8422 44.2267 92.8404 49.0045 93.5225 52.8799C93.7788 54.3362 93.1694 55.6353 92.1719 56.4209C91.2026 57.1841 89.8812 57.4655 88.6084 57.1074C78.9687 54.3952 59.7822 51.4283 41.4336 56.0059C40.0376 56.3541 38.6321 55.9442 37.6855 55.0273C36.7089 54.0812 36.2499 52.6053 36.7939 51.1104L37.082 50.3574Z" fill="#4285F4" stroke="#202224" stroke-width="4" stroke-linecap="round"/>
<path d="M119.309 64L119.617 64.0078C122.787 64.1684 125.309 66.7898 125.309 70V86.5C125.309 88.7091 123.518 90.5 121.309 90.5C119.099 90.5 117.309 88.7091 117.309 86.5V72H110.809V86.5C110.809 88.7091 109.018 90.5 106.809 90.5C104.599 90.5 102.809 88.7091 102.809 86.5V70C102.809 66.6863 105.495 64 108.809 64H119.309Z" fill="#FFF0EC" stroke="#202224" stroke-width="4" stroke-linecap="round"/>
<rect x="88.8086" y="87" width="49" height="54" rx="7" fill="#FFF0EC" stroke="#202224" stroke-width="4"/>
<path d="M90.8086 118H135.809V134C135.809 136.761 133.57 139 130.809 139H95.8086C93.0472 139 90.8086 136.761 90.8086 134V118Z" fill="#FFA690"/>
<circle cx="101.809" cy="141" r="6" fill="#9BA5AD" stroke="#202224" stroke-width="4"/>
<circle cx="125.809" cy="141" r="6" fill="#9BA5AD" stroke="#202224" stroke-width="4"/>
</svg>
