<svg width="24" height="24" viewBox="0 0 24 24" fill="none" xmlns="http://www.w3.org/2000/svg">
<path d="M17.4979 20.2778C16.5287 21.2277 15.4705 21.0777 14.4518 20.6278C13.3738 20.1678 12.3848 20.1478 11.2475 20.6278C9.82335 21.2477 9.07172 21.0677 8.2212 20.2778C3.39496 15.2485 4.10702 7.58942 9.586 7.30946C10.9211 7.37945 11.8508 8.04936 12.6321 8.10935C13.7991 7.86939 14.9166 7.17947 16.1627 7.26946C17.6561 7.38945 18.7835 7.98937 19.5253 9.06923C16.4397 10.939 17.1715 15.0485 20 16.1983C19.4363 17.6981 18.7044 19.188 17.488 20.2878L17.4979 20.2778ZM12.5332 7.24946C12.3848 5.01974 14.1749 3.17998 16.232 3C16.5188 5.57967 13.9177 7.49943 12.5332 7.24946Z" fill="white"/>
</svg>
