<svg width="24" height="24" viewBox="0 0 24 24" fill="none" xmlns="http://www.w3.org/2000/svg">
<path d="M7.1999 6.11999V7.11999C7.55557 7.11999 7.88447 6.93108 8.06368 6.62386L7.1999 6.11999ZM8.8799 3.23999V2.23999C8.52423 2.23999 8.19533 2.4289 8.01612 2.73612L8.8799 3.23999ZM15.1199 3.23999L15.9837 2.73612C15.8045 2.4289 15.4756 2.23999 15.1199 2.23999V3.23999ZM16.7999 6.11999L15.9361 6.62386C16.1153 6.93108 16.4442 7.11999 16.7999 7.11999V6.11999ZM2.3999 18.36H3.3999V8.51999H2.3999H1.3999V18.36H2.3999ZM4.7999 6.11999V7.11999H7.1999V6.11999V5.11999H4.7999V6.11999ZM7.1999 6.11999L8.06368 6.62386L9.74368 3.74386L8.8799 3.23999L8.01612 2.73612L6.33612 5.61612L7.1999 6.11999ZM8.8799 3.23999V4.23999H15.1199V3.23999V2.23999H8.8799V3.23999ZM15.1199 3.23999L14.2561 3.74386L15.9361 6.62386L16.7999 6.11999L17.6637 5.61612L15.9837 2.73612L15.1199 3.23999ZM16.7999 6.11999V7.11999H19.1999V6.11999V5.11999H16.7999V6.11999ZM21.5999 8.51999H20.5999V18.36H21.5999H22.5999V8.51999H21.5999ZM21.5999 18.36H20.5999C20.5999 19.1332 19.9731 19.76 19.1999 19.76V20.76V21.76C21.0777 21.76 22.5999 20.2378 22.5999 18.36H21.5999ZM19.1999 6.11999V7.11999C19.9731 7.11999 20.5999 7.74679 20.5999 8.51999H21.5999H22.5999C22.5999 6.64222 21.0777 5.11999 19.1999 5.11999V6.11999ZM2.3999 8.51999H3.3999C3.3999 7.74679 4.0267 7.11999 4.7999 7.11999V6.11999V5.11999C2.92213 5.11999 1.3999 6.64222 1.3999 8.51999H2.3999ZM4.7999 20.76V19.76C4.0267 19.76 3.3999 19.1332 3.3999 18.36H2.3999H1.3999C1.3999 20.2378 2.92213 21.76 4.7999 21.76V20.76ZM15.5999 12.84H14.5999C14.5999 14.2759 13.4358 15.44 11.9999 15.44V16.44V17.44C14.5404 17.44 16.5999 15.3805 16.5999 12.84H15.5999ZM11.9999 16.44V15.44C10.564 15.44 9.3999 14.2759 9.3999 12.84H8.3999H7.3999C7.3999 15.3805 9.45939 17.44 11.9999 17.44V16.44ZM8.3999 12.84H9.3999C9.3999 11.404 10.564 10.24 11.9999 10.24V9.23999V8.23999C9.45939 8.23999 7.3999 10.2995 7.3999 12.84H8.3999ZM11.9999 9.23999V10.24C13.4358 10.24 14.5999 11.404 14.5999 12.84H15.5999H16.5999C16.5999 10.2995 14.5404 8.23999 11.9999 8.23999V9.23999ZM19.1999 20.76V19.76H4.7999V20.76V21.76H19.1999V20.76Z" fill="white"/>
</svg>
