<svg width="24" height="24" viewBox="0 0 24 24" fill="none" xmlns="http://www.w3.org/2000/svg">
<rect x="5.77344" y="6.20288" width="4.51992" height="8.19568" rx="2.25996" transform="rotate(-29.1684 5.77344 6.20288)" stroke="#FF6640" stroke-width="1.3"/>
<rect width="4.51992" height="8.19568" rx="2.25996" transform="matrix(-0.873191 -0.487377 -0.487377 0.873191 17.9414 6.20288)" stroke="#FF6640" stroke-width="1.3"/>
<mask id="path-3-inside-1_1311_9744" fill="white">
<path d="M5 9H19V17C19 18.1046 18.1046 19 17 19H7C5.89543 19 5 18.1046 5 17V9Z"/>
</mask>
<path d="M5 9H19V17C19 18.1046 18.1046 19 17 19H7C5.89543 19 5 18.1046 5 17V9Z" fill="#FFA690"/>
<path d="M5 6.5H19V11.5H5V6.5ZM19 19H5H19ZM5 19V9V19ZM19 9V19V9Z" fill="#FF6640" mask="url(#path-3-inside-1_1311_9744)"/>
<rect x="4" y="7" width="16" height="3" rx="1.5" fill="#FFA690"/>
<path d="M12 11V19" stroke="#FF6640" stroke-width="1.5"/>
</svg>
