<svg width="24" height="24" viewBox="0 0 24 24" fill="none" xmlns="http://www.w3.org/2000/svg">
<path d="M10.5391 4.65894C11.3276 3.80503 12.6773 3.80505 13.4658 4.65894L14.3994 5.67065C14.5867 5.87356 14.574 6.19038 14.3711 6.37769C14.1682 6.56477 13.8523 6.55213 13.665 6.34937L12.7314 5.33765C12.3388 4.91237 11.666 4.91237 11.2734 5.33765C10.9232 5.71731 10.9233 6.30262 11.2734 6.68237L11.8398 7.29565C12.2659 7.75737 12.5029 8.36271 12.5029 8.99097V9.50659C12.6412 9.55545 12.7741 9.62487 12.8965 9.71558L20.415 15.2888C21.5761 16.1499 20.9671 17.9939 19.5215 17.9939H4.4834C3.03784 17.9938 2.42887 16.1499 3.58984 15.2888L11.1104 9.71558C11.2325 9.62509 11.365 9.55544 11.5029 9.50659V8.99097C11.5029 8.61396 11.3602 8.25042 11.1045 7.97339L10.5391 7.36108C9.83489 6.59821 9.83488 5.4218 10.5391 4.65894ZM12.3008 10.5183C12.124 10.3874 11.8819 10.3873 11.7051 10.5183L4.18555 16.0925C3.79894 16.3796 4.00172 16.9938 4.4834 16.9939H19.5215C20.0033 16.9939 20.2061 16.3796 19.8193 16.0925L12.3008 10.5183Z" fill="#FF6640"/>
</svg>
