<svg width="24" height="24" viewBox="0 0 24 24" fill="none" xmlns="http://www.w3.org/2000/svg">
<path d="M6 19.1V8.9C6 8.40294 6.44772 8 7 8C7.55228 8 8 8.40294 8 8.9V19.1C8 19.5971 7.55228 20 7 20C6.44772 20 6 19.5971 6 19.1Z" fill="#C4CDD5"/>
<path d="M11 13.95L11 9.05C11 8.4701 11.4477 8 12 8C12.5523 8 13 8.4701 13 9.05L13 13.95C13 14.5299 12.5523 15 12 15C11.4477 15 11 14.5299 11 13.95Z" fill="#C4CDD5"/>
<path d="M16 19.1V8.9C16 8.40294 16.4477 8 17 8C17.5523 8 18 8.40294 18 8.9V19.1C18 19.5971 17.5523 20 17 20C16.4477 20 16 19.5971 16 19.1Z" fill="#C4CDD5"/>
<path d="M5.14286 13H18.8571C19.4883 13 20 13.4477 20 14C20 14.5523 19.4883 15 18.8571 15H5.14286C4.51167 15 4 14.5523 4 14C4 13.4477 4.51167 13 5.14286 13Z" fill="#C4CDD5"/>
<path d="M19.0723 4C19.6648 3.99993 20.1249 4.51695 20.0557 5.10547L19.7217 7.93945C19.6032 8.94668 18.7495 9.70605 17.7354 9.70605H6.32715C5.31298 9.70605 4.45932 8.94668 4.34082 7.93945L4.00684 5.10547C3.9376 4.51698 4.3977 3.99998 4.99023 4C5.87406 4.0001 6.79935 5.67276 10.7411 6.30715C11.5948 6.44454 12.4677 6.44455 13.3214 6.30716C17.2631 5.67281 18.1885 4.00019 19.0723 4Z" fill="#687077"/>
</svg>
