<svg width="150" height="180" viewBox="0 0 150 180" fill="none" xmlns="http://www.w3.org/2000/svg">
<path d="M16.7878 69.6203C0.787767 76.0203 16.7878 82.2869 26.7878 84.6203L108.287 77.6203C111.5 77 114.5 77 122.787 71.6203C128.695 67.7851 135.5 61.5 134.287 53.6203C133.185 46.4603 122.954 45.6203 116.787 46.1203C107.454 47.9536 85.4871 52.9203 72.2871 58.1203C59.0871 63.3203 29.7875 67.9536 16.7878 69.6203Z" fill="#C9AA71" stroke="#202224" stroke-width="4"/>
<path d="M78.2871 46.6538C80.0771 46.6936 83.0372 46.7294 85.8405 47.7184C90.5324 48.2736 94.5156 50.5214 97.0042 54.8452C99.4121 58.3365 100.579 62.2594 101.366 65.8336L101.521 66.552L101.566 66.7719L101.584 66.9959C101.684 68.2734 101.853 69.4432 102.036 70.5772C102.208 71.6463 102.416 72.8274 102.548 73.898C102.89 76.4793 104.478 79.193 106.913 81.7616C107.572 82.2838 108.158 82.9204 108.533 83.338C109.004 83.8628 109.229 84.137 109.414 84.3461L109.593 84.5406L109.617 84.5656L109.64 84.5905C117.853 93.4331 117.535 106.355 109.31 115.35C108.724 116.264 108.017 116.89 107.587 117.266C106.99 117.788 106.794 117.946 106.604 118.187L106.397 118.448L106.145 118.665C103.849 120.64 102.9 122.972 103.586 126.085C103.836 126.918 104.135 128.135 104.191 129.32C105.266 133.761 104.937 138.919 101.711 142.949C99.5187 147.361 95.2784 149.365 90.95 149.704C86.5201 150.906 82.3151 149.67 79.385 148.808L79.0551 148.711L78.75 148.551C77.9304 148.122 76.5288 147.616 75.3684 147.359L75.0029 147.278L74.6626 147.121C72.8074 146.268 71.2314 145.958 69.7834 146.023C68.333 146.088 66.7808 146.54 64.9885 147.552L64.9489 147.575L64.9084 147.595C57.062 151.76 48.634 150.864 41.5259 146.222C33.8178 141.959 29.8388 133.657 31.7052 124.866C31.9918 123.142 32.3665 120.594 33.3594 118.253C33.7336 116.351 33.4894 114.849 32.2792 113.413C30.3923 111.45 29.0831 109.824 27.2724 108.217L27.031 108.003L26.8335 107.749C18.7715 97.3877 20.5553 83.1625 31.9438 76.2189C35.1112 73.8634 38.5515 72.5032 40.6564 71.4055L40.7651 71.3483L40.8776 71.3C44.4246 69.7557 46.7137 67.5948 48.431 64.1888C50.8109 58.4397 54.4811 54.1512 59.1902 51.2441C63.9016 48.3356 69.464 46.9231 75.4536 46.6005L75.5866 46.5937L78.2871 46.6538Z" fill="#FF6640" stroke="#202224" stroke-width="7"/>
<path d="M70.7773 68C71.8819 68 72.7773 68.8954 72.7773 70H77.667C77.667 68.8954 78.5624 68 79.667 68H95.2227C96.327 68.0002 97.2227 68.8956 97.2227 70V77C97.2227 78.1044 96.327 78.9998 95.2227 79H79.667C78.5624 79 77.667 78.1046 77.667 77V73H72.7773V77C72.7773 78.1046 71.8819 79 70.7773 79H54C52.8954 79 52 78.1046 52 77V70C52 68.8954 52.8954 68 54 68H70.7773Z" fill="#202224"/>
<path d="M39 58.9879L17 69.4879C23.5 68.4878 30.5 71.5001 44 69.4879C56.2198 67.6666 70.5 54.5 127 47L92.5 43.5L91 40.4879C89.1667 36.4879 80.5 29.3879 60.5 32.9879C40.5 36.5879 37.8333 51.8213 39 58.9879Z" fill="#FDE9B8" stroke="#202224" stroke-width="4"/>
<path d="M40 58.5C48 55 70.7 43.5 93.5 43.5" stroke="#202224" stroke-width="4"/>
<path d="M122.5 67L122.809 67.0078C125.979 67.1684 128.5 69.7898 128.5 73V89.5C128.5 91.7091 126.709 93.5 124.5 93.5C122.291 93.5 120.5 91.7091 120.5 89.5V75H114V89.5C114 91.7091 112.209 93.5 110 93.5C107.791 93.5 106 91.7091 106 89.5V73C106 69.6863 108.686 67 112 67H122.5Z" fill="#FFF0EC" stroke="#202224" stroke-width="4" stroke-linecap="round"/>
<rect x="92" y="90" width="49" height="54" rx="7" fill="#FFF0EC" stroke="#202224" stroke-width="4"/>
<path d="M94 121H139V137C139 139.761 136.761 142 134 142H99C96.2386 142 94 139.761 94 137V121Z" fill="#FFA690"/>
<circle cx="105" cy="144" r="6" fill="#9BA5AD" stroke="#202224" stroke-width="4"/>
<circle cx="129" cy="144" r="6" fill="#9BA5AD" stroke="#202224" stroke-width="4"/>
</svg>
