<svg width="126" height="126" viewBox="0 0 126 126" fill="none" xmlns="http://www.w3.org/2000/svg">
<circle cx="63.0007" cy="63" r="63" fill="white"/>
<path d="M69.5308 26.0307C70.8572 26.0602 72.9085 26.0919 74.8181 26.7842C78.0545 27.1461 80.748 28.6685 82.4236 31.6107C83.9702 33.8501 84.7858 36.3643 85.3427 38.7564L85.5698 39.7852L85.5937 39.899L85.6029 40.0135C85.6774 40.9616 85.8016 41.8256 85.934 42.6494C86.061 43.4398 86.2087 44.2668 86.3013 45.0215L86.3657 45.4185C86.7402 47.3679 87.9573 49.3238 89.6657 51.1173C90.0994 51.4528 90.505 51.8892 90.7873 52.204C90.9954 52.4361 91.1456 52.6109 91.2665 52.7509L91.5686 53.0897L91.581 53.1017L91.5934 53.1147C97.2495 59.2047 97.0358 68.1136 91.3073 74.3333C90.941 74.9232 90.4824 75.3346 90.1683 75.6091C89.7637 75.9627 89.5587 76.129 89.37 76.3669L89.2644 76.5013L89.134 76.6127C87.2906 78.1995 86.4933 80.1525 87.0676 82.6982C87.2478 83.296 87.4521 84.1479 87.4788 84.9393C88.2421 88.0324 88.0013 91.5511 85.8007 94.253C84.3639 97.2113 81.5323 98.5702 78.5545 98.7893C75.5601 99.6309 72.6881 98.8023 70.5399 98.1706L70.3701 98.1209L70.2137 98.0383C69.56 97.6964 68.4896 97.3124 67.6007 97.1157L67.4121 97.0744L67.2371 96.9934C65.8183 96.3409 64.5699 96.0834 63.3919 96.1362C62.2125 96.1891 60.9852 96.5589 59.6174 97.3309L59.5976 97.3422L59.5769 97.3525C54.1702 100.223 48.3654 99.6091 43.4345 96.3724C38.152 93.4549 35.4383 87.7919 36.7113 81.7809C36.9261 80.4939 37.1874 78.7041 37.8872 77.0842C38.2118 75.5145 38.0361 74.1629 36.9528 72.8915C35.6387 71.5251 34.6251 70.2789 33.2941 69.0973L33.1695 68.988L33.0679 68.8568C27.4968 61.6967 28.7586 51.9499 36.5726 47.1999C38.7995 45.5342 41.1679 44.6131 42.7852 43.7698L42.8415 43.7407L42.8997 43.7156C45.6145 42.5335 47.3917 40.8536 48.7055 38.2369C50.364 34.2168 52.9135 31.2424 56.1751 29.2288C59.4391 27.2139 63.319 26.2191 67.5458 25.9915L67.6133 25.9881L69.5308 26.0307Z" fill="#7573F6" stroke="black" stroke-width="3.6"/>
<path d="M57.5994 42.1206H62.6394V47.1606H57.5994V42.1206Z" fill="black"/>
<path d="M69.8408 42.1206H74.8808V47.1606H69.8408V42.1206Z" fill="black"/>
</svg>
