<svg width="24" height="24" viewBox="0 0 24 24" fill="none" xmlns="http://www.w3.org/2000/svg">
<path d="M12.1744 21.6536V7.69M10.5495 6.85231C10.7223 6.89111 10.9045 6.84356 11.0289 6.7191C11.1534 6.59464 11.2009 6.41241 11.1622 6.2396C11.007 5.60582 10.4355 3.48358 9.84861 2.89671C9.11745 2.16555 7.92745 2.16251 7.1999 2.89005C6.47241 3.61754 6.47535 4.80754 7.20656 5.53876C7.80303 6.13523 9.91569 6.69717 10.5495 6.85231ZM12.324 6.23956C12.2852 6.41243 12.3328 6.59459 12.4572 6.71905C12.5817 6.84351 12.7639 6.89098 12.9367 6.85226C13.5705 6.69711 15.6928 6.12557 16.2796 5.53871C17.0108 4.80755 17.0138 3.61755 16.2863 2.89C15.5588 2.16251 14.3688 2.16545 13.6376 2.89666C13.0411 3.49313 12.4792 5.60579 12.324 6.23956ZM3.09808 12.5773H20.9017C21.2873 12.5773 21.5999 12.2647 21.5999 11.8791V8.38818C21.5999 8.00259 21.2873 7.69 20.9017 7.69H3.09808C2.71249 7.69 2.3999 8.00259 2.3999 8.38818V11.8791C2.3999 12.2647 2.71249 12.5773 3.09808 12.5773ZM19.8544 12.5773V20.9555C19.8544 21.3411 19.5419 21.6536 19.1563 21.6536H4.84354C4.45794 21.6536 4.14536 21.3411 4.14536 20.9555V12.5773H19.8544Z" stroke="white" stroke-width="2" stroke-linecap="round" stroke-linejoin="round"/>
</svg>
