<svg width="24" height="24" viewBox="0 0 24 24" fill="none" xmlns="http://www.w3.org/2000/svg">
<rect x="7" y="4" width="11" height="17" rx="1" fill="#FF6640"/>
<path d="M6.88942 13.1552L13.368 14.2968C13.5048 14.3209 13.6452 14.3162 13.7802 14.283L18.0701 13.2287C18.5903 13.1008 19.1189 13.4057 19.2688 13.92L19.627 15.1487C19.8135 15.7887 19.3335 16.4286 18.6669 16.4286H18.0013V20C18.0013 20.5523 17.5536 21 17.0013 21H8.00621C7.45475 21 7.00737 20.5536 7.00621 20.0021L6.99872 16.4286H6.33668C5.66901 16.4286 5.18886 15.7868 5.37735 15.1463L5.75655 13.8577C5.90028 13.3693 6.38802 13.0668 6.88942 13.1552Z" fill="#FFA690"/>
<rect x="12" y="6" width="3" height="3" rx="1" transform="rotate(90 12 6)" fill="#FFA690"/>
<rect x="12" y="10" width="3" height="3" rx="1" transform="rotate(90 12 10)" fill="#FFA690"/>
<rect x="16" y="6" width="3" height="3" rx="1" transform="rotate(90 16 6)" fill="#FFA690"/>
<rect x="16" y="10" width="3" height="3" rx="1" transform="rotate(90 16 10)" fill="#FFA690"/>
</svg>
