<svg width="126" height="126" viewBox="0 0 126 126" fill="none" xmlns="http://www.w3.org/2000/svg">
<circle cx="63" cy="63" r="63" fill="white"/>
<path d="M69.5315 26.0307C70.8579 26.0602 72.9093 26.0919 74.8188 26.7842C78.0553 27.1461 80.7488 28.6685 82.4243 31.6107C83.9709 33.8501 84.7865 36.3643 85.3434 38.7564L85.5706 39.7852L85.5944 39.899L85.6036 40.0135C85.6781 40.9616 85.8023 41.8256 85.9347 42.6494C86.0618 43.4398 86.2094 44.2668 86.302 45.0215L86.3665 45.4185C86.741 47.3679 87.9581 49.3238 89.6664 51.1173C90.1001 51.4528 90.5057 51.8892 90.788 52.204C90.9962 52.4361 91.1464 52.6109 91.2672 52.7509L91.5693 53.0897L91.5817 53.1017L91.5942 53.1147C97.2502 59.2047 97.0365 68.1136 91.308 74.3333C90.9417 74.9232 90.4831 75.3346 90.169 75.6091C89.7644 75.9627 89.5594 76.129 89.3707 76.3669L89.2652 76.5013L89.1347 76.6127C87.2913 78.1995 86.4941 80.1525 87.0683 82.6982C87.2486 83.296 87.4529 84.1479 87.4795 84.9393C88.2429 88.0324 88.0021 91.5511 85.8014 94.253C84.3647 97.2113 81.533 98.5702 78.5552 98.7893C75.5608 99.6309 72.6888 98.8023 70.5406 98.1706L70.3708 98.1209L70.2144 98.0383C69.5607 97.6964 68.4903 97.3124 67.6014 97.1157L67.4129 97.0744L67.2379 96.9934C65.819 96.3409 64.5707 96.0834 63.3927 96.1362C62.2132 96.1891 60.986 96.5589 59.6181 97.3309L59.5983 97.3422L59.5776 97.3525C54.1709 100.223 48.3661 99.6091 43.4352 96.3724C38.1527 93.4549 35.439 87.7919 36.712 81.7809C36.9268 80.4939 37.1881 78.7041 37.888 77.0842C38.2126 75.5145 38.0368 74.1629 36.9536 72.8915C35.6394 71.5251 34.6258 70.2789 33.2948 69.0973L33.1703 68.988L33.0687 68.8568C27.4975 61.6967 28.7593 51.9499 36.5734 47.1999C38.8002 45.5342 41.1687 44.6131 42.7859 43.7698L42.8422 43.7407L42.9004 43.7156C45.6152 42.5335 47.3924 40.8536 48.7062 38.2369C50.3648 34.2168 52.9142 31.2424 56.1759 29.2288C59.4399 27.2139 63.3197 26.2191 67.5465 25.9915L67.614 25.9881L69.5315 26.0307Z" fill="#FF6640" stroke="black" stroke-width="3.6"/>
<path d="M62.635 43.7239L58.1611 46.2774L58.483 40.6748L62.635 43.7239Z" fill="black"/>
<path d="M67.3208 43.9202L71.6408 41.1142L71.6408 46.7261L67.3208 43.9202Z" fill="black"/>
</svg>
