<svg width="20" height="20" viewBox="0 0 20 20" fill="none" xmlns="http://www.w3.org/2000/svg">
<path d="M6.149 8.49213L4.28779 10.3533C3.59268 11.0484 3.19295 11.9943 3.20025 12.9883C3.20755 13.9823 3.59854 14.9338 4.32664 15.6395C5.03221 16.3676 5.98398 16.7585 6.97783 16.7658C7.99435 16.7733 8.91777 16.3961 9.61292 15.701L11.4741 13.8398M13.8515 11.5079L15.7127 9.64668C16.4078 8.95157 16.8075 8.00577 16.8002 7.01175C16.7929 6.01774 16.4019 5.06617 15.6738 4.36056C14.9684 3.65516 14.0168 3.26415 13.0228 3.25684C12.0288 3.24954 11.0829 3.62658 10.3877 4.32171L8.52652 6.18292M7.17783 12.7726L12.7615 7.18901" stroke="#FF6640" stroke-width="2" stroke-linecap="round" stroke-linejoin="round"/>
</svg>
